<svg width="1186" height="410" viewBox="0 0 1186 410" fill="none" xmlns="http://www.w3.org/2000/svg">
<path d="M262.465 527C262.465 527 262.465 495.555 262.465 432.664C262.465 432.664 175.193 432.664 0.648438 432.664C0.648438 432.664 0.648438 416.941 0.648438 385.496C0.648438 385.496 84.6165 260.285 252.553 9.86133C252.553 9.86133 272.833 9.86133 313.393 9.86133C313.393 9.86133 313.393 135.073 313.393 385.496C313.393 385.496 329.229 385.496 360.902 385.496C360.902 385.496 360.902 401.219 360.902 432.664C360.902 432.664 345.066 432.664 313.393 432.664C313.393 432.664 313.393 464.109 313.393 527C313.393 527 296.417 527 262.465 527ZM262.465 385.496C262.465 385.496 262.465 283.982 262.465 80.9551C262.465 80.9551 195.017 182.469 60.1211 385.496C60.1211 385.496 127.569 385.496 262.465 385.496ZM425.051 338.67C425.051 338.67 425.051 289.679 425.051 191.697C425.051 160.252 428.127 133.82 434.279 112.4C440.66 90.7533 450.913 71.7266 465.041 55.3203C480.08 37.5469 498.993 23.9889 521.779 14.6465C544.566 5.30404 569.973 0.632812 598 0.632812C629.673 0.632812 658.042 6.89909 683.107 19.4316C708.4 31.9642 728.794 49.9655 744.289 73.4355C754.315 88.9303 761.379 105.451 765.48 122.996C769.582 140.542 771.633 163.442 771.633 191.697V338.67C771.633 399.738 760.467 445.197 738.137 475.047C708.742 515.835 663.511 536.229 602.443 536.229C566.669 536.229 535.679 529.393 509.475 515.721C483.27 501.821 462.876 481.541 448.293 454.881C432.798 425.942 425.051 387.205 425.051 338.67ZM720.705 330.467V203.66C720.705 174.493 718.768 151.479 714.895 134.617C711.021 117.755 704.299 103.172 694.729 90.8672C672.398 61.9284 640.383 47.459 598.684 47.459C575.441 47.459 554.478 52.5859 535.793 62.8398C517.108 73.0938 502.867 87.1074 493.068 104.881C481.903 125.617 476.32 158.543 476.32 203.66V330.467C476.32 381.964 484.523 419.448 500.93 442.918C523.944 473.68 556.984 489.061 600.051 489.061C624.888 489.061 646.421 484.048 664.65 474.021C683.107 463.768 696.665 449.184 705.324 430.271C715.578 408.624 720.705 375.356 720.705 330.467ZM1086.66 527C1086.66 527 1086.66 495.555 1086.66 432.664C1086.66 432.664 999.388 432.664 824.844 432.664C824.844 432.664 824.844 416.941 824.844 385.496C824.844 385.496 908.812 260.285 1076.75 9.86133C1076.75 9.86133 1097.03 9.86133 1137.59 9.86133C1137.59 9.86133 1137.59 135.073 1137.59 385.496C1137.59 385.496 1153.42 385.496 1185.1 385.496C1185.1 385.496 1185.1 401.219 1185.1 432.664C1185.1 432.664 1169.26 432.664 1137.59 432.664C1137.59 432.664 1137.59 464.109 1137.59 527C1137.59 527 1120.61 527 1086.66 527ZM1086.66 385.496C1086.66 385.496 1086.66 283.982 1086.66 80.9551C1086.66 80.9551 1019.21 182.469 884.316 385.496C884.316 385.496 951.764 385.496 1086.66 385.496Z" fill="white"/>
</svg>
