<svg width="1816" height="179" viewBox="0 0 1816 179" fill="none" xmlns="http://www.w3.org/2000/svg">
<path d="M128.961 112.23C128.961 112.23 134.43 112.23 145.367 112.23C130.458 139.835 107.932 153.637 77.7891 153.637C66.9167 153.637 56.6628 151.684 47.0273 147.777C37.3919 143.871 29.1562 138.565 22.3203 131.859C15.4844 125.089 10.0807 117.016 6.10938 107.641C2.13802 98.2005 0.152344 88.1745 0.152344 77.5625C0.152344 63.0443 3.4401 49.9258 10.0156 38.207C16.6562 26.4232 25.8034 17.2109 37.457 10.5703C49.1758 3.92969 62.2617 0.609375 76.7148 0.609375C92.0143 0.609375 105.751 4.28776 117.926 11.6445C130.1 18.9362 139.052 28.9297 144.781 41.625H128.18C125.315 37.0026 122.646 33.3893 120.172 30.7852C117.698 28.181 114.703 25.7721 111.188 23.5586C101.292 17.3086 90.0286 14.1836 77.3984 14.1836C68.6745 14.1836 60.4714 15.8112 52.7891 19.0664C45.1068 22.2565 38.4987 26.651 32.9648 32.25C27.4961 37.7839 23.1667 44.4245 19.9766 52.1719C16.7865 59.9193 15.1914 68.1875 15.1914 76.9766C15.1914 85.5052 16.819 93.6758 20.0742 101.488C23.3945 109.236 27.8542 115.941 33.4531 121.605C39.0521 127.204 45.6927 131.664 53.375 134.984C61.0573 138.305 69.1302 139.965 77.5938 139.965C84.4948 139.965 91.168 138.858 97.6133 136.645C104.124 134.431 109.918 131.273 114.996 127.172C119.749 123.201 124.404 118.22 128.961 112.23ZM214.039 151C214.039 151 209.124 151 199.293 151C199.293 151 199.293 101.749 199.293 3.24609C199.293 3.24609 233.733 3.24609 302.613 3.24609C302.613 3.24609 302.613 52.4974 302.613 151C302.613 151 297.698 151 287.867 151C287.867 151 287.867 106.208 287.867 16.625C287.867 16.625 263.258 16.625 214.039 16.625C214.039 16.625 214.039 61.4167 214.039 151ZM435.836 0.609375C446.122 0.609375 455.986 2.66016 465.426 6.76172C474.931 10.8633 483.134 16.332 490.035 23.168C497.001 30.0039 502.535 38.1745 506.637 47.6797C510.803 57.1198 512.887 66.9505 512.887 77.1719C512.887 87.4583 510.803 97.3216 506.637 106.762C502.535 116.202 496.969 124.34 489.938 131.176C482.971 138.012 474.671 143.48 465.035 147.582C455.4 151.618 445.341 153.637 434.859 153.637C424.378 153.637 414.286 151.618 404.586 147.582C394.951 143.48 386.617 138.012 379.586 131.176C372.62 124.275 367.053 116.137 362.887 106.762C358.72 97.3216 356.637 87.4583 356.637 77.1719C356.637 63.1745 360.152 50.3164 367.184 38.5977C374.215 26.8789 383.785 17.6341 395.895 10.8633C408.069 4.02734 421.383 0.609375 435.836 0.609375ZM434.078 14.1836C423.01 14.1836 412.659 17.0482 403.023 22.7773C393.453 28.5065 385.836 36.2214 380.172 45.9219C374.508 55.6224 371.676 66.0391 371.676 77.1719C371.676 88.4349 374.508 98.9167 380.172 108.617C385.901 118.253 393.616 125.902 403.316 131.566C413.017 137.165 423.531 139.965 434.859 139.965C443.323 139.965 451.428 138.305 459.176 134.984C466.923 131.599 473.629 127.107 479.293 121.508C484.957 115.909 489.449 109.268 492.77 101.586C496.155 93.8385 497.848 85.7656 497.848 77.3672C497.848 68.7734 496.155 60.5703 492.77 52.7578C489.449 44.9453 484.924 38.2396 479.195 32.6406C473.531 26.9766 466.76 22.4844 458.883 19.1641C451.005 15.8438 442.737 14.1836 434.078 14.1836ZM566.91 151C566.91 151 566.91 101.749 566.91 3.24609C566.91 3.24609 580.484 3.24609 607.633 3.24609C617.203 3.24609 625.016 3.83203 631.07 5.00391C637.19 6.17578 642.529 8.16146 647.086 10.9609C652.685 14.2812 657.014 19.1641 660.074 25.6094C663.134 31.9896 664.664 39.444 664.664 47.9727C664.664 55.3945 663.395 62.0352 660.855 67.8945C658.316 73.7539 654.671 78.4414 649.918 81.957C645.426 85.2773 640.152 87.6536 634.098 89.0859C628.043 90.5182 620.035 91.2344 610.074 91.2344H581.656V151H566.91ZM581.656 77.7578H609.098C622.379 77.7578 631.852 76.0977 637.516 72.7773C641.422 70.694 644.417 67.4714 646.5 63.1094C648.648 58.7474 649.723 53.6367 649.723 47.7773C649.723 40.5508 648.29 34.5286 645.426 29.7109C642.561 24.8281 638.46 21.5404 633.121 19.8477C626.741 17.6992 616.585 16.625 602.652 16.625H581.656V77.7578ZM832.262 151C832.262 151 832.262 101.749 832.262 3.24609C832.262 3.24609 837.177 3.24609 847.008 3.24609C847.008 3.24609 847.008 52.4974 847.008 151C847.008 151 842.092 151 832.262 151ZM715.27 3.24609C715.27 3.24609 720.185 3.24609 730.016 3.24609C730.016 3.24609 730.016 24.1771 730.016 66.0391C730.016 66.0391 739.488 66.0391 758.434 66.0391C768.46 66.0391 776.467 66.7227 782.457 68.0898C788.512 69.3919 793.785 71.638 798.277 74.8281C803.03 78.2135 806.676 82.7708 809.215 88.5C811.754 94.2292 813.023 100.674 813.023 107.836C813.023 116.039 811.493 123.201 808.434 129.32C805.374 135.44 801.044 140.128 795.445 143.383C790.823 146.052 785.452 148.005 779.332 149.242C773.212 150.414 765.432 151 755.992 151H715.27V3.24609ZM730.016 79.418V137.621H751.012C764.488 137.621 774.645 136.612 781.48 134.594C786.754 132.966 790.823 129.841 793.688 125.219C796.617 120.596 798.082 114.867 798.082 108.031C798.082 102.497 797.008 97.6471 794.859 93.4805C792.776 89.3138 789.781 86.2214 785.875 84.2031C780.146 81.013 770.673 79.418 757.457 79.418H730.016ZM992.848 151C992.848 151 992.848 101.749 992.848 3.24609C992.848 3.24609 1004.37 3.24609 1027.42 3.24609C1036.34 3.24609 1043.73 3.92969 1049.59 5.29688C1055.51 6.66406 1060.59 8.84505 1064.82 11.8398C1068.99 14.8997 1072.21 19.0339 1074.49 24.2422C1076.83 29.4505 1078 35.2448 1078 41.625C1078 48.9818 1076.67 55.1341 1074 60.082C1071.4 64.9648 1067.26 69.0013 1061.6 72.1914C1070.19 75.8372 1076.47 80.5573 1080.45 86.3516C1084.42 92.1458 1086.4 99.5677 1086.4 108.617C1086.4 116.234 1084.94 123.103 1082.01 129.223C1079.08 135.277 1075.01 139.932 1069.8 143.188C1065.11 145.987 1059.64 148.005 1053.39 149.242C1047.21 150.414 1039.2 151 1029.37 151H992.848ZM1007.59 137.621H1027.81C1042.46 137.621 1053.13 135.798 1059.84 132.152C1063.36 130.329 1066.15 127.367 1068.24 123.266C1070.39 119.099 1071.46 114.477 1071.46 109.398C1071.46 102.823 1069.93 97.224 1066.87 92.6016C1063.88 87.9141 1059.71 84.724 1054.37 83.0312C1047.93 81.1432 1038.19 80.1992 1025.17 80.1992H1007.59V137.621ZM1007.59 66.8203H1025.66C1032.3 66.8203 1037.51 66.5599 1041.29 66.0391C1045.13 65.4531 1048.58 64.444 1051.64 63.0117C1055.35 61.319 1058.15 58.6497 1060.04 55.0039C1061.99 51.3581 1062.96 46.9635 1062.96 41.8203C1062.96 37.4583 1062.18 33.4544 1060.62 29.8086C1059.06 26.1628 1056.98 23.4935 1054.37 21.8008C1051.64 19.9128 1048.02 18.5781 1043.53 17.7969C1039.1 17.0156 1033.05 16.625 1025.37 16.625H1007.59V66.8203ZM1345.52 112.23C1345.52 112.23 1350.99 112.23 1361.93 112.23C1347.02 139.835 1324.49 153.637 1294.35 153.637C1283.48 153.637 1273.23 151.684 1263.59 147.777C1253.95 143.871 1245.72 138.565 1238.88 131.859C1232.05 125.089 1226.64 117.016 1222.67 107.641C1218.7 98.2005 1216.71 88.1745 1216.71 77.5625C1216.71 63.0443 1220 49.9258 1226.58 38.207C1233.22 26.4232 1242.37 17.2109 1254.02 10.5703C1265.74 3.92969 1278.82 0.609375 1293.28 0.609375C1308.58 0.609375 1322.31 4.28776 1334.49 11.6445C1346.66 18.9362 1355.61 28.9297 1361.34 41.625H1344.74C1341.88 37.0026 1339.21 33.3893 1336.73 30.7852C1334.26 28.181 1331.27 25.7721 1327.75 23.5586C1317.85 17.3086 1306.59 14.1836 1293.96 14.1836C1285.24 14.1836 1277.03 15.8112 1269.35 19.0664C1261.67 22.2565 1255.06 26.651 1249.53 32.25C1244.06 37.7839 1239.73 44.4245 1236.54 52.1719C1233.35 59.9193 1231.75 68.1875 1231.75 76.9766C1231.75 85.5052 1233.38 93.6758 1236.64 101.488C1239.96 109.236 1244.42 115.941 1250.02 121.605C1255.61 127.204 1262.26 131.664 1269.94 134.984C1277.62 138.305 1285.69 139.965 1294.16 139.965C1301.06 139.965 1307.73 138.858 1314.18 136.645C1320.69 134.431 1326.48 131.273 1331.56 127.172C1336.31 123.201 1340.97 118.22 1345.52 112.23ZM1511.46 3.24609C1511.46 3.24609 1490.3 52.4974 1447.98 151C1447.98 151 1442.81 151 1432.46 151C1432.46 151 1438.06 137.947 1449.25 111.84C1449.25 111.84 1433.69 75.6419 1402.57 3.24609C1402.57 3.24609 1407.78 3.24609 1418.2 3.24609C1418.2 3.24609 1431.15 33.3568 1457.07 93.5781C1457.07 93.5781 1469.99 63.4674 1495.84 3.24609C1495.84 3.24609 1501.04 3.24609 1511.46 3.24609ZM1554.45 137.621C1554.45 137.621 1587.91 137.621 1654.84 137.621C1654.84 137.621 1638.11 98.4284 1604.64 20.043C1604.64 20.043 1587.91 59.2357 1554.45 137.621ZM1685.89 137.621C1685.89 137.621 1685.89 151.163 1685.89 178.246C1685.89 178.246 1682.41 178.246 1675.45 178.246C1675.45 178.246 1673.59 169.164 1669.88 151C1669.88 151 1626.42 151 1539.51 151C1539.51 151 1537.62 160.082 1533.84 178.246C1533.84 178.246 1530.39 178.246 1523.49 178.246C1523.49 178.246 1523.49 164.704 1523.49 137.621C1523.49 137.621 1528.57 137.621 1538.73 137.621C1538.73 137.621 1557.9 92.8294 1596.25 3.24609C1596.25 3.24609 1601.85 3.24609 1613.04 3.24609C1613.04 3.24609 1632.25 48.0378 1670.66 137.621C1670.66 137.621 1675.74 137.621 1685.89 137.621ZM1734.64 151C1734.64 151 1734.64 101.749 1734.64 3.24609C1734.64 3.24609 1761.57 3.24609 1815.41 3.24609C1815.41 3.24609 1815.41 7.70573 1815.41 16.625C1815.41 16.625 1793.4 16.625 1749.39 16.625C1749.39 16.625 1749.39 34.2682 1749.39 69.5547C1749.39 69.5547 1770.68 69.5547 1813.26 69.5547C1813.26 69.5547 1813.26 74.0469 1813.26 83.0312C1813.26 83.0312 1791.97 83.0312 1749.39 83.0312C1749.39 83.0312 1749.39 101.228 1749.39 137.621C1749.39 137.621 1771.4 137.621 1815.41 137.621C1815.41 137.621 1815.41 142.081 1815.41 151C1815.41 151 1788.49 151 1734.64 151Z" fill="#282828" fill-opacity="0.02"/>
</svg>
