<svg width="1886" height="154" viewBox="0 0 1886 154" fill="none" xmlns="http://www.w3.org/2000/svg">
<path d="M81.9141 151C81.9141 151 59.5833 128.051 14.9219 82.1523C14.9219 82.1523 14.9219 105.102 14.9219 151C14.9219 151 10.0065 151 0.175781 151C0.175781 151 0.175781 101.749 0.175781 3.24609C0.175781 3.24609 5.09115 3.24609 14.9219 3.24609C14.9219 3.24609 14.9219 25.8372 14.9219 71.0195C14.9219 71.0195 37.3828 48.4284 82.3047 3.24609C82.3047 3.24609 88.8477 3.24609 101.934 3.24609C101.934 3.24609 77.6172 27.6276 28.9844 76.3906C28.9844 76.3906 53.3008 101.26 101.934 151C101.934 151 95.2604 151 81.9141 151ZM199.477 0.609375C209.763 0.609375 219.626 2.66016 229.066 6.76172C238.572 10.8633 246.775 16.332 253.676 23.168C260.642 30.0039 266.176 38.1745 270.277 47.6797C274.444 57.1198 276.527 66.9505 276.527 77.1719C276.527 87.4583 274.444 97.3216 270.277 106.762C266.176 116.202 260.609 124.34 253.578 131.176C246.612 138.012 238.311 143.48 228.676 147.582C219.04 151.618 208.982 153.637 198.5 153.637C188.018 153.637 177.927 151.618 168.227 147.582C158.591 143.48 150.258 138.012 143.227 131.176C136.26 124.275 130.694 116.137 126.527 106.762C122.361 97.3216 120.277 87.4583 120.277 77.1719C120.277 63.1745 123.793 50.3164 130.824 38.5977C137.855 26.8789 147.426 17.6341 159.535 10.8633C171.71 4.02734 185.023 0.609375 199.477 0.609375ZM197.719 14.1836C186.651 14.1836 176.299 17.0482 166.664 22.7773C157.094 28.5065 149.477 36.2214 143.812 45.9219C138.148 55.6224 135.316 66.0391 135.316 77.1719C135.316 88.4349 138.148 98.9167 143.812 108.617C149.542 118.253 157.257 125.902 166.957 131.566C176.658 137.165 187.172 139.965 198.5 139.965C206.964 139.965 215.069 138.305 222.816 134.984C230.564 131.599 237.27 127.107 242.934 121.508C248.598 115.909 253.09 109.268 256.41 101.586C259.796 93.8385 261.488 85.7656 261.488 77.3672C261.488 68.7734 259.796 60.5703 256.41 52.7578C253.09 44.9453 248.565 38.2396 242.836 32.6406C237.172 26.9766 230.401 22.4844 222.523 19.1641C214.646 15.8438 206.378 14.1836 197.719 14.1836ZM316.551 151C316.551 151 316.551 101.749 316.551 3.24609C316.551 3.24609 330.125 3.24609 357.273 3.24609C366.844 3.24609 374.656 3.83203 380.711 5.00391C386.831 6.17578 392.169 8.16146 396.727 10.9609C402.326 14.2812 406.655 19.1641 409.715 25.6094C412.775 31.9896 414.305 39.444 414.305 47.9727C414.305 55.3945 413.035 62.0352 410.496 67.8945C407.957 73.7539 404.311 78.4414 399.559 81.957C395.066 85.2773 389.793 87.6536 383.738 89.0859C377.684 90.5182 369.676 91.2344 359.715 91.2344H331.297V151H316.551ZM331.297 77.7578H358.738C372.02 77.7578 381.492 76.0977 387.156 72.7773C391.062 70.694 394.057 67.4714 396.141 63.1094C398.289 58.7474 399.363 53.6367 399.363 47.7773C399.363 40.5508 397.931 34.5286 395.066 29.7109C392.202 24.8281 388.1 21.5404 382.762 19.8477C376.382 17.6992 366.225 16.625 352.293 16.625H331.297V77.7578ZM465.656 151C465.656 151 460.741 151 450.91 151C450.91 151 450.91 101.749 450.91 3.24609C450.91 3.24609 485.35 3.24609 554.23 3.24609C554.23 3.24609 554.23 52.4974 554.23 151C554.23 151 549.315 151 539.484 151C539.484 151 539.484 106.208 539.484 16.625C539.484 16.625 514.875 16.625 465.656 16.625C465.656 16.625 465.656 61.4167 465.656 151ZM673.453 0.609375C683.74 0.609375 693.603 2.66016 703.043 6.76172C712.548 10.8633 720.751 16.332 727.652 23.168C734.618 30.0039 740.152 38.1745 744.254 47.6797C748.421 57.1198 750.504 66.9505 750.504 77.1719C750.504 87.4583 748.421 97.3216 744.254 106.762C740.152 116.202 734.586 124.34 727.555 131.176C720.589 138.012 712.288 143.48 702.652 147.582C693.017 151.618 682.958 153.637 672.477 153.637C661.995 153.637 651.904 151.618 642.203 147.582C632.568 143.48 624.234 138.012 617.203 131.176C610.237 124.275 604.671 116.137 600.504 106.762C596.337 97.3216 594.254 87.4583 594.254 77.1719C594.254 63.1745 597.77 50.3164 604.801 38.5977C611.832 26.8789 621.402 17.6341 633.512 10.8633C645.686 4.02734 659 0.609375 673.453 0.609375ZM671.695 14.1836C660.628 14.1836 650.276 17.0482 640.641 22.7773C631.07 28.5065 623.453 36.2214 617.789 45.9219C612.125 55.6224 609.293 66.0391 609.293 77.1719C609.293 88.4349 612.125 98.9167 617.789 108.617C623.518 118.253 631.233 125.902 640.934 131.566C650.634 137.165 661.148 139.965 672.477 139.965C680.94 139.965 689.046 138.305 696.793 134.984C704.54 131.599 711.246 127.107 716.91 121.508C722.574 115.909 727.066 109.268 730.387 101.586C733.772 93.8385 735.465 85.7656 735.465 77.3672C735.465 68.7734 733.772 60.5703 730.387 52.7578C727.066 44.9453 722.542 38.2396 716.812 32.6406C711.148 26.9766 704.378 22.4844 696.5 19.1641C688.622 15.8438 680.354 14.1836 671.695 14.1836ZM790.527 151C790.527 151 790.527 101.749 790.527 3.24609C790.527 3.24609 804.102 3.24609 831.25 3.24609C840.82 3.24609 848.633 3.83203 854.688 5.00391C860.807 6.17578 866.146 8.16146 870.703 10.9609C876.302 14.2812 880.632 19.1641 883.691 25.6094C886.751 31.9896 888.281 39.444 888.281 47.9727C888.281 55.3945 887.012 62.0352 884.473 67.8945C881.934 73.7539 878.288 78.4414 873.535 81.957C869.043 85.2773 863.77 87.6536 857.715 89.0859C851.66 90.5182 843.652 91.2344 833.691 91.2344H805.273V151H790.527ZM805.273 77.7578H832.715C845.996 77.7578 855.469 76.0977 861.133 72.7773C865.039 70.694 868.034 67.4714 870.117 63.1094C872.266 58.7474 873.34 53.6367 873.34 47.7773C873.34 40.5508 871.908 34.5286 869.043 29.7109C866.178 24.8281 862.077 21.5404 856.738 19.8477C850.358 17.6992 840.202 16.625 826.27 16.625H805.273V77.7578ZM899.594 151C899.594 151 920.72 101.749 962.973 3.24609C962.973 3.24609 968.507 3.24609 979.574 3.24609C979.574 3.24609 1000.77 52.4974 1043.15 151C1043.15 151 1037.74 151 1026.94 151C1026.94 151 1019.81 134.398 1005.55 101.195C1005.55 101.195 982.602 101.195 936.703 101.195C936.703 101.195 929.509 117.797 915.121 151C915.121 151 909.945 151 899.594 151ZM942.367 87.8164C942.367 87.8164 961.508 87.8164 999.789 87.8164C999.789 87.8164 990.316 65.2253 971.371 20.043C971.371 20.043 961.703 42.6341 942.367 87.8164ZM1086.59 151C1086.59 151 1086.59 106.208 1086.59 16.625C1086.59 16.625 1075.33 16.625 1052.8 16.625C1052.8 16.625 1052.8 12.1654 1052.8 3.24609C1052.8 3.24609 1080.27 3.24609 1135.22 3.24609C1135.22 3.24609 1135.22 7.70573 1135.22 16.625C1135.22 16.625 1123.96 16.625 1101.43 16.625C1101.43 16.625 1101.43 61.4167 1101.43 151C1101.43 151 1096.49 151 1086.59 151ZM1270.56 3.24609C1270.56 3.24609 1275.51 3.24609 1285.4 3.24609C1285.4 3.24609 1285.4 52.4974 1285.4 151C1285.4 151 1280.45 151 1270.56 151C1270.56 151 1270.56 109.073 1270.56 25.2188C1270.56 25.2188 1241.23 67.1458 1182.57 151C1182.57 151 1177.65 151 1167.82 151C1167.82 151 1167.82 101.749 1167.82 3.24609C1167.82 3.24609 1172.74 3.24609 1182.57 3.24609C1182.57 3.24609 1182.57 45.1732 1182.57 129.027C1182.57 129.027 1211.9 87.1003 1270.56 3.24609ZM1331.87 151C1331.87 151 1331.87 101.749 1331.87 3.24609C1331.87 3.24609 1343.39 3.24609 1366.44 3.24609C1375.36 3.24609 1382.75 3.92969 1388.61 5.29688C1394.53 6.66406 1399.61 8.84505 1403.84 11.8398C1408.01 14.8997 1411.23 19.0339 1413.51 24.2422C1415.86 29.4505 1417.03 35.2448 1417.03 41.625C1417.03 48.9818 1415.69 55.1341 1413.02 60.082C1410.42 64.9648 1406.29 69.0013 1400.62 72.1914C1409.21 75.8372 1415.5 80.5573 1419.47 86.3516C1423.44 92.1458 1425.43 99.5677 1425.43 108.617C1425.43 116.234 1423.96 123.103 1421.03 129.223C1418.1 135.277 1414.03 139.932 1408.82 143.188C1404.14 145.987 1398.67 148.005 1392.42 149.242C1386.23 150.414 1378.23 151 1368.39 151H1331.87ZM1346.62 137.621H1366.83C1381.48 137.621 1392.16 135.798 1398.86 132.152C1402.38 130.329 1405.18 127.367 1407.26 123.266C1409.41 119.099 1410.48 114.477 1410.48 109.398C1410.48 102.823 1408.95 97.224 1405.89 92.6016C1402.9 87.9141 1398.73 84.724 1393.39 83.0312C1386.95 81.1432 1377.22 80.1992 1364.2 80.1992H1346.62V137.621ZM1346.62 66.8203H1364.68C1371.32 66.8203 1376.53 66.5599 1380.31 66.0391C1384.15 65.4531 1387.6 64.444 1390.66 63.0117C1394.37 61.319 1397.17 58.6497 1399.06 55.0039C1401.01 51.3581 1401.99 46.9635 1401.99 41.8203C1401.99 37.4583 1401.21 33.4544 1399.64 29.8086C1398.08 26.1628 1396 23.4935 1393.39 21.8008C1390.66 19.9128 1387.05 18.5781 1382.55 17.7969C1378.13 17.0156 1372.07 16.625 1364.39 16.625H1346.62V66.8203ZM1462.71 151C1462.71 151 1462.71 101.749 1462.71 3.24609C1462.71 3.24609 1467.63 3.24609 1477.46 3.24609C1477.46 3.24609 1477.46 24.8932 1477.46 68.1875C1477.46 68.1875 1503.01 68.1875 1554.12 68.1875C1554.12 68.1875 1554.12 46.5404 1554.12 3.24609C1554.12 3.24609 1559.04 3.24609 1568.87 3.24609C1568.87 3.24609 1568.87 52.4974 1568.87 151C1568.87 151 1563.95 151 1554.12 151C1554.12 151 1554.12 127.855 1554.12 81.5664C1554.12 81.5664 1528.57 81.5664 1477.46 81.5664C1477.46 81.5664 1477.46 104.711 1477.46 151C1477.46 151 1472.55 151 1462.71 151ZM1687.99 0.609375C1698.28 0.609375 1708.14 2.66016 1717.58 6.76172C1727.09 10.8633 1735.29 16.332 1742.19 23.168C1749.16 30.0039 1754.69 38.1745 1758.79 47.6797C1762.96 57.1198 1765.04 66.9505 1765.04 77.1719C1765.04 87.4583 1762.96 97.3216 1758.79 106.762C1754.69 116.202 1749.12 124.34 1742.09 131.176C1735.13 138.012 1726.83 143.48 1717.19 147.582C1707.56 151.618 1697.5 153.637 1687.02 153.637C1676.53 153.637 1666.44 151.618 1656.74 147.582C1647.11 143.48 1638.77 138.012 1631.74 131.176C1624.78 124.275 1619.21 116.137 1615.04 106.762C1610.88 97.3216 1608.79 87.4583 1608.79 77.1719C1608.79 63.1745 1612.31 50.3164 1619.34 38.5977C1626.37 26.8789 1635.94 17.6341 1648.05 10.8633C1660.23 4.02734 1673.54 0.609375 1687.99 0.609375ZM1686.23 14.1836C1675.17 14.1836 1664.82 17.0482 1655.18 22.7773C1645.61 28.5065 1637.99 36.2214 1632.33 45.9219C1626.66 55.6224 1623.83 66.0391 1623.83 77.1719C1623.83 88.4349 1626.66 98.9167 1632.33 108.617C1638.06 118.253 1645.77 125.902 1655.47 131.566C1665.17 137.165 1675.69 139.965 1687.02 139.965C1695.48 139.965 1703.58 138.305 1711.33 134.984C1719.08 131.599 1725.79 127.107 1731.45 121.508C1737.11 115.909 1741.61 109.268 1744.93 101.586C1748.31 93.8385 1750 85.7656 1750 77.3672C1750 68.7734 1748.31 60.5703 1744.93 52.7578C1741.61 44.9453 1737.08 38.2396 1731.35 32.6406C1725.69 26.9766 1718.92 22.4844 1711.04 19.1641C1703.16 15.8438 1694.89 14.1836 1686.23 14.1836ZM1805.07 151C1805.07 151 1805.07 101.749 1805.07 3.24609C1805.07 3.24609 1831.99 3.24609 1885.83 3.24609C1885.83 3.24609 1885.83 7.70573 1885.83 16.625C1885.83 16.625 1863.82 16.625 1819.81 16.625C1819.81 16.625 1819.81 34.2682 1819.81 69.5547C1819.81 69.5547 1841.1 69.5547 1883.68 69.5547C1883.68 69.5547 1883.68 74.0469 1883.68 83.0312C1883.68 83.0312 1862.39 83.0312 1819.81 83.0312C1819.81 83.0312 1819.81 101.228 1819.81 137.621C1819.81 137.621 1841.82 137.621 1885.83 137.621C1885.83 137.621 1885.83 142.081 1885.83 151C1885.83 151 1858.91 151 1805.07 151Z" fill="#282828" fill-opacity="0.02"/>
</svg>
