<svg width="18" height="18" viewBox="0 0 18 18" fill="none" xmlns="http://www.w3.org/2000/svg">
<circle cx="9" cy="9" r="9" fill="#FF6600"/>
<path fill-rule="evenodd" clip-rule="evenodd" d="M5.66683 5.66602H12.3335C12.7918 5.66602 13.1668 6.04101 13.1668 6.49935V11.4993C13.1668 11.9577 12.7918 12.3327 12.3335 12.3327H5.66683C5.2085 12.3327 4.8335 11.9577 4.8335 11.4993V6.49935C4.8335 6.04101 5.2085 5.66602 5.66683 5.66602ZM9.44183 9.14102L12.1668 7.43685C12.271 7.37018 12.3335 7.25769 12.3335 7.13685C12.3335 6.85769 12.0293 6.69102 11.7918 6.83685L9.00016 8.58268L6.2085 6.83685C5.971 6.69102 5.66683 6.85769 5.66683 7.13685C5.66683 7.25769 5.72933 7.37018 5.8335 7.43685L8.5585 9.14102C8.82933 9.31185 9.171 9.31185 9.44183 9.14102Z" fill="#F9F9F9"/>
</svg>
