<svg width="16" height="16" viewBox="0 0 16 16" fill="none" xmlns="http://www.w3.org/2000/svg">
<g clip-path="url(#clip0_54_516)">
<path d="M10.7742 2.54432C10.5562 2.31872 10.1934 2.31872 9.9678 2.54432C9.74983 2.76229 9.74983 3.12507 9.9678 3.34254L14.0565 7.4312H0.564438C0.249925 7.43171 -5.8651e-05 7.6817 -5.8651e-05 7.99621C-5.8651e-05 8.31072 0.249925 8.56883 0.564438 8.56883H14.0565L9.9678 12.6499C9.74983 12.8755 9.74983 13.2388 9.9678 13.4562C10.1934 13.6818 10.5567 13.6818 10.7742 13.4562L15.8307 8.39964C16.0563 8.18166 16.0563 7.81888 15.8307 7.60142L10.7742 2.54432Z" fill="#F9F9F9" fill-opacity="0.6"/>
</g>
<defs>
<clipPath id="clip0_54_516">
<rect width="16" height="16" rx="8" fill="white"/>
</clipPath>
</defs>
</svg>
