<svg width="48" height="30" viewBox="0 0 48 30" fill="none" xmlns="http://www.w3.org/2000/svg">
<g clip-path="url(#clip0_1_233)">
<path fill-rule="evenodd" clip-rule="evenodd" d="M18.2421 29.6625C16.0806 29.146 14.9456 27.5839 14.461 25.5371C13.8872 23.1205 13.9318 20.6848 14.697 18.3001C15.2963 16.4446 16.5652 15.2969 18.4653 14.8634C20.1104 14.4872 21.7682 14.4935 23.3877 14.908C25.2559 15.3862 26.41 16.6678 26.9584 18.4659C27.7363 20.9909 27.6916 23.5541 26.952 26.0791C26.2889 28.3426 24.6821 29.535 22.393 29.8474C20.8054 30.0833 19.0902 29.8602 18.2421 29.6625ZM18.7969 22.3171C18.9116 23.6115 18.8351 24.925 19.0073 26.2194C19.1348 27.1375 19.8553 27.6412 20.8054 27.654C21.7108 27.6668 22.4377 27.1822 22.5779 26.3022C22.884 23.5732 22.8585 21.0291 22.5779 18.383C22.4058 17.3883 21.6853 16.9037 20.7097 16.9484C19.7724 16.9866 19.1029 17.5031 18.9754 18.4659C18.8224 19.722 18.9116 21.0036 18.7969 22.3171Z" fill="#F9F9F9"/>
<path fill-rule="evenodd" clip-rule="evenodd" d="M41.3751 25.9703C40.8331 28.0298 39.4814 29.3178 37.3708 29.745C35.8278 30.0511 34.2784 30.0511 32.7545 29.694C30.7077 29.2158 29.4962 27.8258 28.9606 25.881C28.2784 23.3879 28.323 20.8885 29.0754 18.4209C29.6748 16.4315 31.0265 15.2328 33.0669 14.8247C34.6673 14.5059 36.2614 14.5059 37.8363 14.9331C40.3421 15.609 41.3177 17.5473 41.713 19.8874C41.9999 22.2976 41.8214 24.5739 41.3751 25.9703ZM33.188 22.2721C33.2901 23.5856 33.188 24.8417 33.3602 26.1042C33.5069 27.1244 34.1636 27.6281 35.1455 27.6536C36.1147 27.6727 36.9117 27.2073 36.9946 26.1807C37.205 23.5027 37.205 21.0606 36.9819 18.4209C36.8862 17.3497 36.1594 16.9288 35.1583 16.9416C34.1827 16.9607 33.5069 17.4581 33.3602 18.4783C33.188 19.7471 33.2901 21.0415 33.188 22.2721Z" fill="#F9F9F9"/>
<path fill-rule="evenodd" clip-rule="evenodd" d="M3.7619 25.1159C4.57168 27.0989 5.7449 27.7557 7.42821 27.2073C8.41015 26.8885 8.88199 26.2317 8.85648 25.2116C8.83735 24.2934 8.36552 23.6239 7.38996 23.4262C6.49729 23.2349 5.57912 23.2222 4.61631 23.1202C4.61631 22.4124 4.61631 21.6855 4.61631 20.9076C5.39421 20.8502 6.1721 20.8247 6.94362 20.7355C8.07221 20.6016 8.67157 19.9002 8.62694 18.8417C8.57593 17.7514 7.95744 17.1648 6.7906 17.101C5.61737 17.0436 5.04352 17.4453 4.16998 18.9246C2.98401 18.7588 1.77891 18.5931 0.49729 18.4082C1.11578 16.8077 2.14872 15.7557 3.64075 15.1882C5.80228 14.3784 8.03395 14.3656 10.221 15.0862C12.3953 15.7875 13.4155 17.6303 12.8416 19.524C12.5611 20.4485 11.9043 21.0288 11.0882 21.4496C10.8204 21.6026 10.527 21.7174 10.1253 21.8959C10.5526 22.0617 10.8777 22.1892 11.2093 22.3168C14.1934 23.5027 13.7215 27.1499 12.0892 28.4188C10.4824 29.6749 8.62694 30.0001 6.60569 30.0001C5.29857 30.0001 4.4059 29.8152 3.34107 29.5091C1.51748 28.9926 0.4144 27.6154 0.0254517 25.6196C1.26881 25.4411 2.49304 25.2881 3.7619 25.1159Z" fill="#F9F9F9"/>
<path fill-rule="evenodd" clip-rule="evenodd" d="M30.5417 5.63681C31.9763 6.15329 32.4801 6.95669 32.3972 8.56349C32.3143 10.081 31.53 11.2287 30.1464 11.369C28.5141 11.5348 26.8563 11.4073 25.1666 11.4073C25.1666 7.79834 25.1666 4.1129 25.1666 0.446591C26.8563 0.446591 28.5587 0.33182 30.2293 0.484848C31.4152 0.586867 31.9636 1.56243 32.0592 2.72289C32.1549 3.83873 31.9062 4.81429 30.8286 5.4009C30.7521 5.43915 30.682 5.47741 30.6246 5.52204C30.5927 5.52204 30.58 5.55392 30.5417 5.63681ZM27.36 9.90249C28.2973 9.87061 29.2728 10.0938 29.8403 9.16285C30.2356 8.49335 30.2165 7.71545 29.7702 7.07146C29.1581 6.2043 28.2399 6.51673 27.3727 6.51035C27.36 7.65807 27.36 8.72927 27.36 9.90249ZM27.3855 1.96413C27.3855 2.97156 27.3855 3.90887 27.3855 4.88442C28.2526 4.93543 29.1836 5.08846 29.5916 4.22768C29.8276 3.74946 29.7893 2.93968 29.5343 2.4806C29.0879 1.6772 28.1698 1.95137 27.3855 1.96413Z" fill="#F9F9F9"/>
<path fill-rule="evenodd" clip-rule="evenodd" d="M2.58867 11.5217C1.77889 11.5217 1.10302 11.5217 0.376129 11.5217C0.376129 7.78529 0.376129 4.08709 0.376129 0.337891C2.71619 0.337891 5.0435 0.337891 7.4282 0.337891C7.4282 4.05521 7.4282 7.75341 7.4282 11.5026C6.7332 11.5026 6.0637 11.5026 5.27942 11.5026C5.27942 8.3974 5.27942 5.28582 5.27942 2.13598C4.33575 2.13598 3.50047 2.13598 2.59505 2.13598C2.58867 5.25394 2.58867 8.34001 2.58867 11.5217Z" fill="#F9F9F9"/>
<path fill-rule="evenodd" clip-rule="evenodd" d="M40.763 3.05398C40.425 0.937081 39.1881 -0.000219643 36.9436 0.0571661C34.9479 0.108176 33.679 1.18575 33.5132 3.23251C33.3857 5.00509 33.3857 6.80318 33.5132 8.57576C33.6599 10.5843 34.916 11.6618 36.8863 11.7001C39.271 11.7447 40.4442 10.8648 40.7757 8.71604C40.916 7.78511 40.9415 6.83506 41.0117 5.88501C40.9415 4.94771 40.916 3.99128 40.763 3.05398ZM38.5058 8.93921C38.4038 9.64696 37.9702 10.1252 37.1668 10.1252C36.3698 10.1252 35.8406 9.66609 35.8151 8.96471C35.7449 6.93071 35.7577 4.88395 35.8278 2.84356C35.8533 2.11668 36.4144 1.67672 37.1796 1.67672C37.9702 1.68947 38.4038 2.18682 38.5058 2.8882C38.6588 3.87651 38.5441 4.87757 38.6397 5.87226C38.5568 6.89245 38.6588 7.93177 38.5058 8.93921Z" fill="#F9F9F9"/>
<path fill-rule="evenodd" clip-rule="evenodd" d="M24.2484 11.5222C23.4514 11.5222 22.7436 11.5222 21.9912 11.5222C21.8063 10.7507 21.6278 9.99827 21.4429 9.20125C20.4418 9.20125 19.4535 9.20125 18.4206 9.20125C18.2357 9.97277 18.0571 10.7379 17.8658 11.5094C17.1262 11.5094 16.4376 11.5094 15.6724 11.5094C15.6852 11.3245 15.6597 11.1587 15.7043 10.993C16.5906 7.64545 17.4833 4.3107 18.3504 0.963201C18.4907 0.433977 18.7139 0.268196 19.2686 0.280948C21.309 0.306453 21.309 0.280948 21.851 2.27032C22.6161 5.12048 23.3749 7.98977 24.1273 10.8527C24.1783 11.044 24.1974 11.2544 24.2484 11.5222ZM21.0539 7.28201C20.6905 5.61782 20.3462 4.0429 20.0082 2.45523C19.9509 2.45523 19.8871 2.46798 19.8297 2.46798C19.4918 4.05566 19.1475 5.63695 18.7968 7.28201C19.581 7.28201 20.2505 7.28201 21.0539 7.28201Z" fill="#F9F9F9"/>
<path fill-rule="evenodd" clip-rule="evenodd" d="M8.92047 11.4895C8.92047 7.75309 8.92047 4.07402 8.92047 0.37583C10.5719 0.37583 12.2042 0.222801 13.8046 0.420463C15.3413 0.611749 16.2467 2.46722 15.9215 4.28444C15.6155 6.03789 14.5698 6.90505 12.6888 7.0007C11.1139 7.07083 11.1139 7.07084 11.1011 8.65851C11.1011 9.5703 11.1011 10.4885 11.1011 11.4768C10.3742 11.4895 9.69199 11.4895 8.92047 11.4895ZM11.1713 1.95075C11.1713 3.13672 11.1713 4.2398 11.1713 5.36839C12.0448 5.40027 12.9247 5.59156 13.4412 4.74352C13.862 4.05489 13.8493 3.26425 13.4539 2.56924C12.9375 1.67657 12.0448 1.97625 11.1713 1.95075Z" fill="#F9F9F9"/>
<path fill-rule="evenodd" clip-rule="evenodd" d="M42.2104 0H43.7917C44.6779 0 44.8629 0.624867 44.8629 1.16047C44.8629 1.54942 44.6971 2.1169 44.2762 2.17428V2.20616C45.0605 2.28905 44.4548 3.23911 44.8756 4.08714H44.085C43.9447 3.79384 44.0148 3.60893 43.9702 3.0542C43.9383 2.56323 43.6195 2.58236 43.5111 2.58236H42.9946V4.08714H42.2104V0ZM42.9946 1.82997H43.5812C43.7598 1.82997 44.0276 1.79809 44.0276 1.3135C44.0276 0.867163 43.8554 0.784272 43.5621 0.784272H42.9946V1.82997Z" fill="#F9F9F9"/>
<path fill-rule="evenodd" clip-rule="evenodd" d="M45.934 0V2.3847C45.934 3.18172 46.0935 3.41764 46.4952 3.41764C46.8969 3.41764 47.0626 3.19447 47.0626 2.3847V0H47.8469V2.53773C47.8469 3.44315 47.6365 4.20829 46.4952 4.20829C45.3538 4.20829 45.1434 3.44315 45.1434 2.53773V0L45.934 0Z" fill="#F9F9F9"/>
</g>
<defs>
<clipPath id="clip0_1_233">
<rect width="47.8723" height="30" fill="white"/>
</clipPath>
</defs>
</svg>
