<svg width="48" height="48" viewBox="0 0 48 48" fill="none" xmlns="http://www.w3.org/2000/svg">
<circle cx="24" cy="24" r="24" fill="#FF6600"/>
<g clip-path="url(#clip0_83_5149)">
<path d="M27.3422 26.1119L26.8451 26.609C26.5705 26.8836 26.5705 27.3288 26.8451 27.6034L28.8336 29.5919C28.9709 29.7292 29.1509 29.7979 29.3308 29.7979C29.5107 29.7979 29.6907 29.7292 29.8279 29.5919L35.7935 23.6263C36.0681 23.3517 36.0681 22.9065 35.7935 22.6319L33.805 20.6434C33.5305 20.3688 33.0852 20.3688 32.8106 20.6434L32.3136 21.1405L26.8589 15.6859L27.356 15.1888C27.6306 14.9142 27.6306 14.4691 27.356 14.1945L25.3675 12.2059C25.093 11.9314 24.6477 11.9314 24.3731 12.2059L18.4076 18.1715C18.133 18.4461 18.133 18.8913 18.4076 19.1659L20.3961 21.1544C20.5334 21.2917 20.7133 21.3604 20.8932 21.3604C21.0731 21.3604 21.2531 21.2917 21.3904 21.1544L21.8875 20.6573L23.1232 21.8931L12.6173 32.399C11.7949 33.2215 11.7949 34.5597 12.6173 35.3822C13.4397 36.2045 14.778 36.2045 15.6004 35.3822L26.1064 24.8762L27.3422 26.1119ZM34.302 23.1291L29.3308 28.1003L28.3367 27.1062L33.3078 22.135L34.302 23.1291ZM19.8991 18.6687L24.8703 13.6975L25.8645 14.6916L20.8933 19.6628L19.8991 18.6687ZM25.8646 16.6803L31.3192 22.1349L28.3365 25.1176L22.8819 19.663L25.8646 16.6803ZM14.606 34.3878C14.3319 34.662 13.8858 34.662 13.6117 34.3878C13.3375 34.1136 13.3375 33.6676 13.6117 33.3934L21.1349 25.8702L22.1293 26.8646L14.606 34.3878ZM23.1236 25.8702L22.1292 24.8758L24.1176 22.8874L25.112 23.8818L23.1236 25.8702Z" fill="#F9F9F9"/>
<path d="M35.2964 34.5938H34.5933V33.8906C34.5933 32.7275 33.647 31.7812 32.4839 31.7812H26.7651C25.602 31.7812 24.6558 32.7275 24.6558 33.8906V34.5938H23.9526C23.5643 34.5938 23.2495 34.9086 23.2495 35.2969C23.2495 35.6852 23.5643 36 23.9526 36H35.2964C35.6847 36 35.9995 35.6852 35.9995 35.2969C35.9995 34.9086 35.6847 34.5938 35.2964 34.5938ZM26.062 33.8906C26.062 33.5029 26.3774 33.1875 26.7651 33.1875H32.4839C32.8716 33.1875 33.187 33.5029 33.187 33.8906V34.5938H26.062V33.8906Z" fill="#F9F9F9"/>
</g>
<defs>
<clipPath id="clip0_83_5149">
<rect width="24" height="24" fill="white" transform="translate(12 12)"/>
</clipPath>
</defs>
</svg>
