<svg width="62" height="62" viewBox="0 0 62 62" fill="none" xmlns="http://www.w3.org/2000/svg">
<rect width="62" height="62" rx="10" fill="#F9F9F9"/>
<g clip-path="url(#clip0_479_1957)">
<path d="M31.8203 16.9375H25.4922C25.2755 16.9375 25.0739 17.0034 24.9062 17.1159C24.7386 17.0034 24.537 16.9375 24.3203 16.9375H17.9922C17.4106 16.9375 16.9375 17.4106 16.9375 17.9922V44.0078C16.9375 44.5894 17.4106 45.0625 17.9922 45.0625H24.3203C24.537 45.0625 24.7386 44.9966 24.9062 44.8841C25.0739 44.9966 25.2755 45.0625 25.4922 45.0625H31.8203C32.4019 45.0625 32.875 44.5894 32.875 44.0078V17.9922C32.875 17.4106 32.4019 16.9375 31.8203 16.9375ZM24.3203 44.125H17.9922C17.9276 44.125 17.875 44.0724 17.875 44.0078V17.9922C17.875 17.9276 17.9276 17.875 17.9922 17.875H24.3203C24.3849 17.875 24.4375 17.9276 24.4375 17.9922V44.0078C24.4375 44.0724 24.3849 44.125 24.3203 44.125ZM31.9375 44.0078C31.9375 44.0724 31.8849 44.125 31.8203 44.125H25.4922C25.4276 44.125 25.375 44.0724 25.375 44.0078V17.9922C25.375 17.9276 25.4276 17.875 25.4922 17.875H31.8203C31.8849 17.875 31.9375 17.9276 31.9375 17.9922V44.0078Z" fill="#FF6600"/>
<path d="M31 18.8125H26.3125C26.0536 18.8125 25.8438 19.0224 25.8438 19.2812V32.4062C25.8438 32.6651 26.0536 32.875 26.3125 32.875H31C31.2589 32.875 31.4688 32.6651 31.4688 32.4062V19.2812C31.4688 19.0224 31.2589 18.8125 31 18.8125ZM30.5312 31.9375H26.7812V19.75H30.5312V31.9375Z" fill="#FF6600"/>
<path d="M28.6562 33.8125C27.1054 33.8125 25.8438 35.0741 25.8438 36.625C25.8438 38.1759 27.1054 39.4375 28.6562 39.4375C30.2071 39.4375 31.4688 38.1759 31.4688 36.625C31.4688 35.0741 30.2071 33.8125 28.6562 33.8125ZM28.6562 38.5C27.6224 38.5 26.7812 37.6589 26.7812 36.625C26.7812 35.5911 27.6224 34.75 28.6562 34.75C29.6901 34.75 30.5312 35.5911 30.5312 36.625C30.5312 37.6589 29.6901 38.5 28.6562 38.5Z" fill="#FF6600"/>
<path d="M31 40.375H26.3125C26.0536 40.375 25.8438 40.5849 25.8438 40.8438C25.8438 41.1026 26.0536 41.3125 26.3125 41.3125H31C31.2589 41.3125 31.4688 41.1026 31.4688 40.8438C31.4688 40.5849 31.2589 40.375 31 40.375Z" fill="#FF6600"/>
<path d="M31 42.25H26.3125C26.0536 42.25 25.8438 42.4599 25.8438 42.7188C25.8438 42.9776 26.0536 43.1875 26.3125 43.1875H31C31.2589 43.1875 31.4688 42.9776 31.4688 42.7188C31.4688 42.4599 31.2589 42.25 31 42.25Z" fill="#FF6600"/>
<path d="M27.7188 21.625H29.5938C29.8526 21.625 30.0625 21.4151 30.0625 21.1562C30.0625 20.8974 29.8526 20.6875 29.5938 20.6875H27.7188C27.4599 20.6875 27.25 20.8974 27.25 21.1562C27.25 21.4151 27.4599 21.625 27.7188 21.625Z" fill="#FF6600"/>
<path d="M27.7188 23.0312H29.5938C29.8526 23.0312 30.0625 22.8214 30.0625 22.5625C30.0625 22.3036 29.8526 22.0938 29.5938 22.0938H27.7188C27.4599 22.0938 27.25 22.3036 27.25 22.5625C27.25 22.8214 27.4599 23.0312 27.7188 23.0312Z" fill="#FF6600"/>
<path d="M27.7188 24.4375H29.5938C29.8526 24.4375 30.0625 24.2276 30.0625 23.9688C30.0625 23.7099 29.8526 23.5 29.5938 23.5H27.7188C27.4599 23.5 27.25 23.7099 27.25 23.9688C27.25 24.2276 27.4599 24.4375 27.7188 24.4375Z" fill="#FF6600"/>
<path d="M27.7188 25.8438H29.5938C29.8526 25.8438 30.0625 25.6339 30.0625 25.375C30.0625 25.1161 29.8526 24.9062 29.5938 24.9062H27.7188C27.4599 24.9062 27.25 25.1161 27.25 25.375C27.25 25.6339 27.4599 25.8438 27.7188 25.8438Z" fill="#FF6600"/>
<path d="M27.7188 27.25H29.5938C29.8526 27.25 30.0625 27.0401 30.0625 26.7812C30.0625 26.5224 29.8526 26.3125 29.5938 26.3125H27.7188C27.4599 26.3125 27.25 26.5224 27.25 26.7812C27.25 27.0401 27.4599 27.25 27.7188 27.25Z" fill="#FF6600"/>
<path d="M45.0522 42.9857L41.4509 17.2206C41.412 16.9416 41.2667 16.6945 41.0418 16.5247C40.8169 16.355 40.5393 16.2829 40.2604 16.322L33.9932 17.198C33.4173 17.2785 33.0142 17.8126 33.0947 18.3885L36.6959 44.1537C36.7695 44.6804 37.2224 45.0625 37.7397 45.0625C37.7882 45.0625 37.8372 45.0591 37.8864 45.0522L44.1536 44.1762C44.4327 44.1373 44.6797 43.992 44.8495 43.7671C45.0192 43.5422 45.0912 43.2647 45.0522 42.9857ZM44.1012 43.2023C44.0878 43.22 44.0636 43.2422 44.024 43.2478H44.0239L37.7567 44.1237C37.7171 44.1292 37.6876 44.1146 37.6699 44.1012C37.6522 44.0878 37.63 44.0636 37.6245 44.0239L34.0232 18.2587C34.0142 18.1947 34.059 18.1355 34.123 18.1264L40.3902 17.2505C40.3961 17.2497 40.4018 17.2493 40.4073 17.2493C40.4384 17.2493 40.462 17.2617 40.4771 17.273C40.4948 17.2864 40.517 17.3106 40.5225 17.3503L44.1238 43.1154C44.1293 43.1552 44.1146 43.1846 44.1012 43.2023Z" fill="#FF6600"/>
<path d="M42.0536 31.6904L40.2368 18.6918C40.201 18.4355 39.9641 18.2568 39.7077 18.2925L35.0653 18.9413C34.9422 18.9585 34.8309 19.0239 34.756 19.1232C34.6811 19.2224 34.6487 19.3473 34.6659 19.4705L36.4827 32.4691C36.4999 32.5923 36.5653 32.7035 36.6646 32.7784C36.7464 32.8402 36.8456 32.873 36.9469 32.873C36.9685 32.873 36.9902 32.8715 37.0118 32.8685L41.6541 32.2196C41.9106 32.1837 42.0894 31.9468 42.0536 31.6904ZM37.3463 31.8751L35.6593 19.8049L39.3732 19.2858L41.0602 31.356L37.3463 31.8751Z" fill="#FF6600"/>
<path d="M38.1578 38.5029C38.651 38.8751 39.239 39.071 39.8462 39.071C39.9773 39.071 40.1093 39.0619 40.2415 39.0433C40.9855 38.9394 41.6444 38.5519 42.097 37.9522C42.5496 37.3526 42.7415 36.6126 42.6375 35.8686C42.5335 35.1246 42.146 34.4656 41.5464 34.013C40.9467 33.5604 40.2066 33.3684 39.4627 33.4725C38.7187 33.5764 38.0598 33.964 37.6072 34.5636C37.1546 35.1632 36.9627 35.9032 37.0667 36.6472C37.1707 37.3913 37.5582 38.0502 38.1578 38.5029ZM38.3555 35.1285C38.6572 34.7287 39.0965 34.4704 39.5925 34.401C39.6807 34.3887 39.7686 34.3826 39.856 34.3826C40.2608 34.3826 40.6528 34.5132 40.9816 34.7614C41.3813 35.0631 41.6397 35.5024 41.7091 35.9985C41.7784 36.4945 41.6504 36.9878 41.3487 37.3875C41.047 37.7873 40.6077 38.0455 40.1117 38.1149C39.6154 38.1843 39.1224 38.0563 38.7226 37.7546C38.3228 37.4529 38.0645 37.0136 37.9951 36.5175C37.9258 36.0215 38.0538 35.5282 38.3555 35.1285Z" fill="#FF6600"/>
<path d="M38.1799 41.2248L42.8223 40.5759C43.0787 40.5401 43.2575 40.3032 43.2216 40.0468C43.1858 39.7904 42.949 39.6118 42.6925 39.6475L38.0501 40.2964C37.7938 40.3322 37.615 40.5691 37.6508 40.8255C37.6836 41.0598 37.8844 41.2294 38.1145 41.2294C38.136 41.2294 38.1579 41.2279 38.1799 41.2248Z" fill="#FF6600"/>
<path d="M42.952 41.5043L38.3097 42.1532C38.0533 42.189 37.8745 42.4259 37.9103 42.6823C37.9431 42.9167 38.1439 43.0862 38.374 43.0862C38.3956 43.0862 38.4175 43.0848 38.4395 43.0817L43.0819 42.4328C43.3383 42.397 43.5171 42.1601 43.4812 41.9037C43.4453 41.6473 43.2084 41.4685 42.952 41.5043Z" fill="#FF6600"/>
<path d="M36.8474 21.5322L38.7044 21.2726C38.9608 21.2368 39.1395 20.9999 39.1037 20.7435C39.0679 20.4871 38.8311 20.3084 38.5746 20.3442L36.7176 20.6037C36.4613 20.6395 36.2824 20.8764 36.3183 21.1328C36.3511 21.3672 36.5519 21.5368 36.7819 21.5368C36.8035 21.5367 36.8254 21.5353 36.8474 21.5322Z" fill="#FF6600"/>
<path d="M37.042 22.9248L38.8989 22.6653C39.1553 22.6295 39.3341 22.3926 39.2982 22.1362C39.2624 21.8797 39.0254 21.7012 38.7691 21.7368L36.9122 21.9964C36.6558 22.0322 36.477 22.2691 36.5129 22.5255C36.5456 22.7599 36.7464 22.9295 36.9765 22.9295C36.9981 22.9294 37.02 22.9279 37.042 22.9248Z" fill="#FF6600"/>
<path d="M38.9637 23.1295L37.1068 23.3891C36.8504 23.4249 36.6716 23.6618 36.7075 23.9182C36.7402 24.1526 36.941 24.3222 37.1711 24.3222C37.1927 24.3222 37.2146 24.3207 37.2366 24.3176L39.0936 24.058C39.35 24.0222 39.5287 23.7853 39.4929 23.5289C39.457 23.2725 39.22 23.0939 38.9637 23.1295Z" fill="#FF6600"/>
<path d="M39.1586 24.5222L37.3016 24.7818C37.0452 24.8176 36.8664 25.0545 36.9023 25.3109C36.935 25.5453 37.1358 25.7148 37.3659 25.7148C37.3876 25.7148 37.4094 25.7134 37.4314 25.7103L39.2884 25.4507C39.5448 25.4149 39.7236 25.178 39.6877 24.9216C39.6519 24.6652 39.4148 24.4866 39.1586 24.5222Z" fill="#FF6600"/>
<path d="M39.3531 25.9151L37.4962 26.1746C37.2398 26.2104 37.061 26.4473 37.0969 26.7037C37.1296 26.9381 37.3304 27.1077 37.5605 27.1077C37.5821 27.1077 37.604 27.1062 37.626 27.1031L39.483 26.8435C39.7394 26.8077 39.9181 26.5708 39.8823 26.3144C39.8464 26.058 39.6095 25.8788 39.3531 25.9151Z" fill="#FF6600"/>
<path d="M23.5 18.8125H18.8125C18.5536 18.8125 18.3438 19.0224 18.3438 19.2812V32.4062C18.3438 32.6651 18.5536 32.875 18.8125 32.875H23.5C23.7589 32.875 23.9688 32.6651 23.9688 32.4062V19.2812C23.9688 19.0224 23.7589 18.8125 23.5 18.8125ZM23.0312 31.9375H19.2812V19.75H23.0312V31.9375Z" fill="#FF6600"/>
<path d="M21.1562 33.8125C19.6054 33.8125 18.3438 35.0741 18.3438 36.625C18.3438 38.1759 19.6054 39.4375 21.1562 39.4375C22.7071 39.4375 23.9688 38.1759 23.9688 36.625C23.9688 35.0741 22.7071 33.8125 21.1562 33.8125ZM21.1562 38.5C20.1224 38.5 19.2812 37.6589 19.2812 36.625C19.2812 35.5911 20.1224 34.75 21.1562 34.75C22.1901 34.75 23.0312 35.5911 23.0312 36.625C23.0312 37.6589 22.1901 38.5 21.1562 38.5Z" fill="#FF6600"/>
<path d="M23.5 40.375H18.8125C18.5536 40.375 18.3438 40.5849 18.3438 40.8438C18.3438 41.1026 18.5536 41.3125 18.8125 41.3125H23.5C23.7589 41.3125 23.9688 41.1026 23.9688 40.8438C23.9688 40.5849 23.7589 40.375 23.5 40.375Z" fill="#FF6600"/>
<path d="M23.5 42.25H18.8125C18.5536 42.25 18.3438 42.4599 18.3438 42.7188C18.3438 42.9776 18.5536 43.1875 18.8125 43.1875H23.5C23.7589 43.1875 23.9688 42.9776 23.9688 42.7188C23.9688 42.4599 23.7589 42.25 23.5 42.25Z" fill="#FF6600"/>
<path d="M20.2188 21.625H22.0938C22.3526 21.625 22.5625 21.4151 22.5625 21.1562C22.5625 20.8974 22.3526 20.6875 22.0938 20.6875H20.2188C19.9599 20.6875 19.75 20.8974 19.75 21.1562C19.75 21.4151 19.9599 21.625 20.2188 21.625Z" fill="#FF6600"/>
<path d="M20.2188 23.0312H22.0938C22.3526 23.0312 22.5625 22.8214 22.5625 22.5625C22.5625 22.3036 22.3526 22.0938 22.0938 22.0938H20.2188C19.9599 22.0938 19.75 22.3036 19.75 22.5625C19.75 22.8214 19.9599 23.0312 20.2188 23.0312Z" fill="#FF6600"/>
<path d="M20.2188 24.4375H22.0938C22.3526 24.4375 22.5625 24.2276 22.5625 23.9688C22.5625 23.7099 22.3526 23.5 22.0938 23.5H20.2188C19.9599 23.5 19.75 23.7099 19.75 23.9688C19.75 24.2276 19.9599 24.4375 20.2188 24.4375Z" fill="#FF6600"/>
<path d="M20.2188 25.8438H22.0938C22.3526 25.8438 22.5625 25.6339 22.5625 25.375C22.5625 25.1161 22.3526 24.9062 22.0938 24.9062H20.2188C19.9599 24.9062 19.75 25.1161 19.75 25.375C19.75 25.6339 19.9599 25.8438 20.2188 25.8438Z" fill="#FF6600"/>
<path d="M20.2188 27.25H22.0938C22.3526 27.25 22.5625 27.0401 22.5625 26.7812C22.5625 26.5224 22.3526 26.3125 22.0938 26.3125H20.2188C19.9599 26.3125 19.75 26.5224 19.75 26.7812C19.75 27.0401 19.9599 27.25 20.2188 27.25Z" fill="#FF6600"/>
</g>
<defs>
<clipPath id="clip0_479_1957">
<rect width="30" height="30" fill="white" transform="translate(16 16)"/>
</clipPath>
</defs>
</svg>
