<svg width="62" height="62" viewBox="0 0 62 62" fill="none" xmlns="http://www.w3.org/2000/svg">
<rect width="62" height="62" rx="10" fill="#F9F9F9"/>
<g clip-path="url(#clip0_479_1956)">
<path d="M22.9154 22.2889C22.9501 22.3301 22.9926 22.3641 23.0405 22.3888C23.0883 22.4136 23.1406 22.4287 23.1943 22.4332C23.2479 22.4378 23.302 22.4317 23.3533 22.4153C23.4046 22.399 23.4522 22.3727 23.4934 22.3379L27.8441 18.6685C27.9273 18.5984 27.9792 18.4981 27.9884 18.3897C27.9976 18.2813 27.9633 18.1736 27.8932 18.0905C27.8231 18.0073 27.7227 17.9554 27.6143 17.9462C27.5059 17.937 27.3983 17.9712 27.3151 18.0413L22.9644 21.711C22.8813 21.7811 22.8295 21.8814 22.8203 21.9898C22.8111 22.0982 22.8453 22.2058 22.9154 22.2889Z" fill="#FF6600"/>
<path d="M26.7975 20.5522C26.5502 20.5522 26.3084 20.6256 26.1027 20.763C25.897 20.9004 25.7367 21.0958 25.6421 21.3243C25.5474 21.5528 25.5227 21.8043 25.5709 22.0469C25.6192 22.2895 25.7383 22.5123 25.9132 22.6872C26.0881 22.8621 26.3109 22.9812 26.5535 23.0295C26.7961 23.0777 27.0476 23.053 27.2761 22.9583C27.5046 22.8636 27.6999 22.7033 27.8374 22.4977C27.9748 22.292 28.0481 22.0502 28.0481 21.8029C28.0478 21.4713 27.9159 21.1534 27.6814 20.919C27.447 20.6845 27.1291 20.5526 26.7975 20.5522ZM26.7975 22.2332C26.7124 22.2332 26.6292 22.2079 26.5584 22.1607C26.4877 22.1134 26.4325 22.0462 26.3999 21.9675C26.3674 21.8889 26.3589 21.8024 26.3755 21.7189C26.3921 21.6354 26.433 21.5588 26.4932 21.4986C26.5534 21.4384 26.6301 21.3974 26.7136 21.3808C26.797 21.3642 26.8835 21.3727 26.9622 21.4053C27.0408 21.4379 27.108 21.493 27.1553 21.5638C27.2026 21.6346 27.2278 21.7178 27.2278 21.8029C27.2279 21.9171 27.1827 22.0268 27.102 22.1077C27.0213 22.1886 26.9118 22.2342 26.7975 22.2344V22.2332Z" fill="#FF6600"/>
<path d="M23.7912 20.0474C24.0385 20.0474 24.2803 19.974 24.486 19.8366C24.6916 19.6992 24.8519 19.5039 24.9466 19.2754C25.0412 19.0468 25.066 18.7954 25.0177 18.5528C24.9695 18.3102 24.8504 18.0873 24.6755 17.9124C24.5006 17.7375 24.2777 17.6184 24.0351 17.5702C23.7925 17.5219 23.5411 17.5467 23.3126 17.6413C23.084 17.736 22.8887 17.8963 22.7513 18.102C22.6139 18.3076 22.5405 18.5494 22.5405 18.7968C22.5409 19.1283 22.6728 19.4462 22.9072 19.6807C23.1417 19.9151 23.4596 20.047 23.7912 20.0474ZM23.7912 18.3665C23.8763 18.3665 23.9595 18.3917 24.0302 18.439C24.101 18.4863 24.1561 18.5535 24.1887 18.6321C24.2213 18.7107 24.2298 18.7972 24.2132 18.8807C24.1966 18.9642 24.1556 19.0409 24.0954 19.101C24.0352 19.1612 23.9586 19.2022 23.8751 19.2188C23.7916 19.2354 23.7051 19.2269 23.6265 19.1943C23.5478 19.1618 23.4806 19.1066 23.4334 19.0358C23.3861 18.9651 23.3608 18.8819 23.3608 18.7968C23.3611 18.6828 23.4066 18.5736 23.4873 18.4931C23.5679 18.4126 23.6772 18.3673 23.7912 18.3672V18.3665Z" fill="#FF6600"/>
<path d="M18.2852 28.7155H32.5234C32.6322 28.7155 32.7365 28.6723 32.8134 28.5953C32.8903 28.5184 32.9335 28.4142 32.9336 28.3054V25.8438C32.9335 25.735 32.8903 25.6307 32.8134 25.5538C32.7365 25.4769 32.6322 25.4337 32.5234 25.4336H18.2852C18.1764 25.4337 18.0721 25.4769 17.9952 25.5538C17.9183 25.6307 17.8751 25.735 17.875 25.8438V28.3047C17.8749 28.3586 17.8855 28.412 17.9061 28.4618C17.9267 28.5117 17.9569 28.5569 17.995 28.5951C18.033 28.6333 18.0783 28.6635 18.1281 28.6842C18.1779 28.7049 18.2312 28.7155 18.2852 28.7155ZM18.6953 26.2546H32.1133V27.8952H18.6953V26.2546Z" fill="#FF6600"/>
<path d="M18.2852 33.5348H32.5234C32.6322 33.5348 32.7365 33.4916 32.8135 33.4147C32.8904 33.3377 32.9336 33.2334 32.9336 33.1246V30.6637C32.9335 30.5549 32.8903 30.4506 32.8134 30.3737C32.7365 30.2968 32.6322 30.2536 32.5234 30.2535H18.2852C18.1764 30.2536 18.0721 30.2968 17.9952 30.3737C17.9183 30.4506 17.8751 30.5549 17.875 30.6637V33.1246C17.875 33.2334 17.9182 33.3377 17.9951 33.4147C18.0721 33.4916 18.1764 33.5348 18.2852 33.5348ZM18.6953 31.0739H32.1133V32.7145H18.6953V31.0739Z" fill="#FF6600"/>
<path d="M32.5234 38.3542C32.6322 38.3542 32.7365 38.311 32.8134 38.234C32.8903 38.1571 32.9335 38.0529 32.9336 37.9441V35.4832C32.9335 35.3744 32.8903 35.2701 32.8134 35.1932C32.7365 35.1163 32.6322 35.0731 32.5234 35.073H18.2852C18.1764 35.0731 18.0721 35.1163 17.9952 35.1932C17.9183 35.2701 17.8751 35.3744 17.875 35.4832V37.9441C17.8751 38.0529 17.9183 38.1571 17.9952 38.234C18.0721 38.311 18.1764 38.3542 18.2852 38.3542H32.5234ZM18.6953 35.8933H32.1133V37.5339H18.6953V35.8933Z" fill="#FF6600"/>
<path d="M44.6523 42.8945H44.5938V32.7578C44.5938 32.6741 44.5683 32.5923 44.5206 32.5234L41.2687 27.8359C41.2309 27.7815 41.1805 27.7371 41.1218 27.7064C41.0631 27.6757 40.9979 27.6597 40.9316 27.6597H34.8086V21.2734C34.8085 21.1647 34.7653 21.0604 34.6884 20.9835C34.6115 20.9066 34.5072 20.8633 34.3984 20.8633H30.5605V17.582C30.5601 17.1626 30.3932 16.7605 30.0966 16.4639C29.8001 16.1673 29.3979 16.0005 28.9785 16H21.8301C21.4106 16.0005 21.0085 16.1673 20.712 16.4639C20.4154 16.7605 20.2485 17.1626 20.248 17.582V20.8633H16.4102C16.3014 20.8633 16.1971 20.9066 16.1202 20.9835C16.0433 21.0604 16.0001 21.1647 16 21.2734V45.5898C16.0001 45.6986 16.0433 45.8029 16.1202 45.8798C16.1971 45.9567 16.3014 45.9999 16.4102 46H45.5898C45.6986 45.9999 45.8029 45.9567 45.8798 45.8798C45.9567 45.8029 45.9999 45.6986 46 45.5898V44.2422C45.9996 43.8849 45.8574 43.5424 45.6048 43.2897C45.3522 43.0371 45.0096 42.895 44.6523 42.8945ZM40.717 28.4805L43.7734 32.8867V42.8945H34.8086V38.3542H41.8398C41.9486 38.3542 42.0529 38.3109 42.1298 38.234C42.2067 38.1571 42.2499 38.0528 42.25 37.9441V35.4831C42.2499 35.3744 42.2067 35.2701 42.1298 35.1932C42.0529 35.1163 41.9486 35.073 41.8398 35.073H34.8086V33.8718H40.4336C40.4875 33.8718 40.5409 33.8611 40.5907 33.8404C40.6405 33.8198 40.6857 33.7895 40.7238 33.7513C40.7619 33.7132 40.7921 33.6679 40.8127 33.6181C40.8333 33.5682 40.8438 33.5149 40.8438 33.4609V31C40.8437 30.8912 40.8005 30.787 40.7235 30.71C40.6466 30.6331 40.5424 30.5899 40.4336 30.5898H34.8086V28.4805H40.717ZM34.8086 31.4109H40.0234V33.0515H34.8086V31.4109ZM34.8086 35.8933H41.4297V37.5339H34.8086V35.8933ZM21.0684 17.582C21.0686 17.3801 21.1489 17.1865 21.2917 17.0437C21.4345 16.9009 21.6281 16.8206 21.8301 16.8203H28.9785C29.1805 16.8206 29.3741 16.9009 29.5169 17.0437C29.6597 17.1865 29.74 17.3801 29.7402 17.582V22.7969C29.74 22.9988 29.6597 23.1924 29.5169 23.3352C29.3741 23.478 29.1805 23.5583 28.9785 23.5586H21.8301C21.6281 23.5583 21.4345 23.478 21.2917 23.3352C21.1489 23.1924 21.0686 22.9988 21.0684 22.7969V17.582ZM16.8203 21.6843H20.248V22.7969C20.2485 23.2163 20.4154 23.6184 20.712 23.915C21.0085 24.2116 21.4106 24.3784 21.8301 24.3789H28.9785C29.3979 24.3784 29.8001 24.2116 30.0966 23.915C30.3932 23.6184 30.5601 23.2163 30.5605 22.7969V21.6836H33.9883V45.1797H28.8906V41.4597C28.8906 41.3509 28.8473 41.2466 28.7704 41.1698L27.5985 39.9979C27.5216 39.921 27.4174 39.8777 27.3086 39.8777H23.5C23.3912 39.8777 23.287 39.921 23.2101 39.9979L22.0382 41.1698C21.9613 41.2466 21.918 41.3509 21.918 41.4597V45.1797H16.8203V21.6843ZM22.7383 41.6296L23.6699 40.698H24.9941V45.1797H22.7383V41.6296ZM25.8145 45.1797V40.698H27.1387L28.0703 41.6296V45.1797H25.8145ZM45.1797 45.1797H34.8086V43.7148H44.6523C44.7922 43.715 44.9262 43.7706 45.0251 43.8694C45.124 43.9683 45.1796 44.1024 45.1797 44.2422V45.1797Z" fill="#FF6600"/>
</g>
<defs>
<clipPath id="clip0_479_1956">
<rect width="30" height="30" fill="white" transform="translate(16 16)"/>
</clipPath>
</defs>
</svg>
