<svg width="300" height="42" viewBox="0 0 300 42" fill="none" xmlns="http://www.w3.org/2000/svg">
<path d="M298.771 5.91876C298.771 3.8714 297.11 2.21037 295.063 2.21037C293.029 2.21062 291.355 3.88484 291.355 5.91851C291.355 7.95243 293.03 9.62564 295.063 9.62614C297.098 9.6269 298.77 7.95294 298.771 5.91876ZM290.727 5.91851C290.727 3.53884 292.683 1.58203 295.063 1.58203C297.454 1.58203 299.399 3.5259 299.399 5.91749C299.4 8.29666 297.442 10.2537 295.063 10.2545C292.683 10.2552 290.727 8.29818 290.727 5.91851Z" fill="#282828"/>
<path fill-rule="evenodd" clip-rule="evenodd" d="M294.933 2.73158C295.047 3.7942 295.903 3.19047 296.272 2.89367C296.406 2.78688 296.572 2.59028 296.662 2.53498C296.72 2.50049 296.806 2.52484 296.841 2.59713C296.875 2.70393 296.889 2.83863 296.824 3.03522C296.745 3.26631 296.61 3.49056 296.534 3.6113C296.338 3.92864 296.144 4.20793 295.913 4.50118C295.537 4.97046 295.061 5.34285 294.668 5.80174C294.064 6.50542 293.723 7.59214 293.909 8.50966C293.958 8.74405 294.068 9.04084 294.292 9.16489C295.624 9.90332 296.6 6.73651 296.148 5.80174C296.086 5.68099 295.962 5.4636 295.796 5.4948C294.961 5.65004 294.575 8.36126 295.096 8.55786C295.07 8.87875 294.561 9.07534 294.413 8.48201C294.364 8.27502 294.354 8.05762 294.361 7.84378C294.387 6.93995 295.11 5.57394 295.938 5.15666C296.314 4.96336 296.845 4.96691 297.055 5.39815C297.797 6.9331 295.793 9.76862 294.058 9.50988C293.219 9.38228 292.916 8.57866 292.981 7.81613C293.033 7.18855 293.295 6.59167 293.658 6.08103C294.389 5.05316 295.541 4.75307 296.1 3.94589C296.1 3.94589 296.121 3.91495 296.125 3.8977C296.133 3.87233 296.104 3.84239 296.066 3.87233C296.004 3.92763 295.683 4.09327 295.459 4.12067C295.007 4.17242 294.762 3.55499 294.686 3.21355C294.669 3.1377 294.665 3.0791 294.593 3.1755C294.373 3.46189 294.203 5.06254 293.979 5.15209L293.103 5.50063C293.103 5.50063 293.065 5.51838 293.051 5.46613C292.951 5.09349 293.855 3.80003 294.107 3.36524C294.141 3.3102 294.348 2.90661 294.386 2.87541C294.452 2.82036 294.851 2.71788 294.933 2.73158Z" fill="#282828"/>
<path d="M32.5472 33.1485H20.4804L13.09 20.8948L10.6887 23.3932V33.1485H0.601562V2.31934H10.6887V12.2695L19.3378 2.31934H31.1685L20.076 13.8179L32.5472 33.1485ZM46.0533 21.7114C46.0533 20.3017 45.7225 19.0235 45.0602 17.8913C44.3981 16.7592 43.3761 16.1895 41.9799 16.1895C40.7346 16.1895 39.792 16.7592 39.1586 17.8987C38.5251 19.0453 38.2086 20.3164 38.2086 21.7114C38.2086 23.2088 38.5467 24.6258 39.2235 25.9479C39.8927 27.2771 40.9289 27.9417 42.318 27.9417C43.6569 27.9417 44.614 27.2989 45.1898 26.0062C45.7656 24.7135 46.0533 23.2818 46.0533 21.7114ZM53.0495 28.6573C50.666 32.1917 46.5807 33.8456 42.3553 33.8456C38.0008 33.8456 33.8038 32.2057 31.3701 28.5307C29.1378 25.1595 28.8522 19.6625 30.7327 16.0654C32.1793 13.2971 34.831 11.2962 37.8712 10.4832C41.2199 9.55374 44.8443 9.75464 48.0593 11.0808C51.0658 12.3162 53.3024 14.858 54.2762 17.8794C55.3396 21.1784 54.9601 25.8236 53.0495 28.6573ZM131.22 19.4499C130.905 17.9816 130.386 16.9639 129.67 16.3967C128.947 15.8211 128.035 15.5375 126.92 15.5375C125.84 15.5375 124.984 15.813 124.352 16.3716C123.721 16.9223 123.244 17.9484 122.914 19.4499H131.22ZM139.849 23.8039H123.001C123.001 24.4979 123.121 25.107 123.359 25.6376C124.084 27.2517 125.396 28.3413 127.274 28.3413C128.653 28.3413 130.243 27.786 130.54 26.2881H139.169C138.841 28.4135 137.485 30.2889 135.738 31.5213C133.977 32.7607 131.813 33.4512 129.677 33.6949C126.937 34.0316 123.768 33.94 121.23 32.8807C118.279 31.6539 116.075 29.3859 114.875 26.459C113.772 23.6063 113.757 20.442 114.826 17.5664C115.934 14.5832 118.216 12.2761 121.174 11.0527C124.773 9.57124 129.811 9.67169 133.29 11.4065C136.377 12.9402 138.483 15.5548 139.358 18.8548C139.79 20.5148 139.954 22.1053 139.849 23.8039ZM164.018 28.7002C162.36 31.8602 159.298 33.834 155.608 33.834C152.958 33.834 151.214 32.9725 149.423 31.1342V40.801H140.435V10.7607H148.393V14.1101C150.12 10.6701 154.393 9.4203 157.84 10.2881C161.596 11.2249 164.126 14.3828 165.026 17.9322C165.868 21.2312 165.576 25.7531 164.018 28.7002ZM156.696 21.396C156.696 20.4466 156.381 19.4101 155.744 18.2937C155.107 17.1775 154.183 16.6194 152.98 16.6194C151.785 16.6194 150.861 17.1412 150.217 18.1922C149.572 19.236 149.25 20.3015 149.25 21.396C149.25 22.7372 149.501 23.9911 150.002 25.1509C150.51 26.3106 151.498 26.8905 152.98 26.8905C154.427 26.8905 155.401 26.2888 155.923 25.0857C156.396 23.9244 156.696 22.6545 156.696 21.396ZM184.825 32.8908C181.332 34.114 176.585 34.3017 173.108 32.8548C170.918 31.9439 168.977 30.4066 167.751 28.3626C166.553 26.3994 165.931 24.1377 165.931 21.8354C165.931 20.302 166.254 18.7952 166.796 17.3645C168.052 14.1474 170.224 12.3015 173.361 11.0227C176.95 9.55907 182.282 9.61234 185.69 11.4669C188.938 13.2345 190.638 15.6687 191.084 19.2561H181.887C181.725 18.1526 181.414 17.4705 180.959 16.8886C179.671 15.2392 176.755 16.0451 175.824 17.6727C174.637 19.7495 174.441 22.8171 175.192 25.0935C175.687 26.594 177.317 27.8661 178.9 27.8661C181.144 27.8661 181.61 26.3548 182.196 24.4761H191.084C190.991 28.2324 188.745 31.5174 184.825 32.8908ZM207.48 24.3452C207.48 23.9284 207.443 23.5862 207.367 23.3257C206.751 23.6679 205.788 23.9657 204.479 24.2186C203.482 24.4008 202.422 24.6235 201.531 25.1118C200.267 25.7366 200.335 27.5282 201.44 28.252C202.719 29.0211 204.863 28.9577 205.938 27.8801C206.961 26.905 207.48 25.7295 207.48 24.3452ZM217.481 33.1485H208.28L207.93 30.7772C207.259 31.644 205.761 32.3581 204.247 32.9408C203.51 33.2249 202.751 33.4497 201.976 33.5927C201.2 33.7289 200.375 33.8007 199.515 33.8007C197.963 33.8007 196.544 33.5285 195.258 32.9839C193.971 32.4393 193 31.5867 192.328 30.4404C191.727 29.1794 191.427 27.9039 191.427 26.6001C191.427 24.952 192.194 23.5931 193.249 22.3749C193.851 21.6801 194.44 21.2897 195.502 20.8816C196.005 20.6883 196.503 20.5204 196.991 20.3801C197.475 20.2411 197.933 20.1087 198.368 20.0432L202.136 19.4773C203.735 19.2371 205.282 19.0298 205.966 18.8038C206.387 18.6645 206.883 18.2099 207.128 17.9233C207.372 17.6369 207.336 17.3358 207.336 17.0278C207.336 16.605 207.133 16.2539 206.721 15.9675C206.309 15.6809 205.721 15.5375 204.959 15.5375C204.044 15.5375 202.905 15.6738 202.353 15.9459C201.801 16.2181 201.444 16.7628 201.276 17.5722H192.754C193.041 16.1035 192.989 15.2461 193.405 14.3491C193.82 13.4549 194.475 12.6871 195.369 12.0493C196.264 11.4119 197.493 10.9162 199.067 10.5877C199.828 10.4291 200.732 10.3185 201.759 10.2366C202.794 10.1539 203.94 10.1077 205.212 10.1077C208.309 10.1077 210.628 10.4761 212.175 11.211C213.718 11.9448 214.725 12.5361 215.195 13.6388C215.662 14.7357 215.978 16.1608 216.124 17.9091V29.7453C216.124 30.9634 216.579 31.8662 217.481 32.4537V33.1485ZM242.482 33.1485H233.607V24.7813H227.033V33.1485H218.244L218.235 11.1097L218.244 10.7729H227.033V18.2703H233.508V10.7729H242.482L242.474 32.7475L242.482 33.1485ZM267.144 17.3675H259.501V33.1485H250.599V17.3675H242.892V10.7729H267.144V17.3675ZM295.972 25.9882C295.972 27.9536 295.036 29.6804 293.532 30.9119C291.553 32.5486 288.816 33.1485 286.304 33.1485H272.565V17.3675H267.434V10.7729H281.131V18.6262H285.817C288.426 18.6262 291.318 19.1364 293.385 20.8496C294.94 22.1375 295.972 23.9388 295.972 25.9882ZM287.124 26.011C287.124 24.5973 286.341 24.0043 284.997 23.8432C284.724 23.8432 284.183 23.8204 283.383 23.7861C282.583 23.7503 281.511 23.7361 281.131 23.7361V28.0576L283.357 28.1005C283.964 28.1133 284.464 28.0878 284.85 28.0576C286.217 27.9562 287.124 27.5848 287.124 26.011ZM72.0851 33.1483H67.7712L63.0575 18.2008L63.7855 24.0596V33.1483H55.9142V10.6438H66.0092L69.9281 23.0748L73.8471 10.6438H83.9424V33.1483H76.0707V24.0596L76.7988 18.2008L72.0851 33.1483ZM101.562 33.1483H97.2486L92.5349 18.2008L93.2629 24.0596V33.1483H85.3913V10.6438H95.4866L99.4055 23.0748L103.324 10.6438H113.42V33.1483H105.548V24.0596L106.276 18.2008L101.562 33.1483Z" fill="#282828"/>
</svg>
