<svg width="120" height="52" viewBox="0 0 120 52" fill="none" xmlns="http://www.w3.org/2000/svg">
<g clip-path="url(#clip0_1_308)">
<path opacity="0.995" fill-rule="evenodd" clip-rule="evenodd" d="M56.819 -0.0253906C56.8536 -0.0253906 56.8878 -0.0253906 56.9224 -0.0253906C56.729 0.778051 56.565 1.5884 56.431 2.40564C56.1046 4.51082 56.3028 6.56256 57.0259 8.56082C58.2755 8.84959 59.4134 9.37542 60.4396 10.1384C60.9915 10.5867 61.5429 11.0349 62.0948 11.4832C63.6031 12.9941 65.1895 14.4079 66.8534 15.7246C68.7579 17.0838 70.8786 17.8941 73.2155 18.1556C71.5412 20.3304 69.5586 22.158 67.2672 23.6384C63.1221 26.1416 58.6909 26.8141 53.9741 25.6556C53.3891 25.5116 52.8119 25.3478 52.2414 25.1643C49.2101 28.2311 48.6584 31.6967 50.5862 35.5608C52.4757 38.6169 55.2259 40.3325 58.8362 40.7074C62.4657 40.9729 65.7072 39.9901 68.5603 37.7591C70.2781 36.1782 71.5453 34.2903 72.3621 32.0953C73.0572 30.1838 73.4881 28.2528 73.6552 26.3022C74.16 30.0002 73.8326 33.6209 72.6724 37.1643C70.7679 42.2071 67.3624 45.8536 62.4569 48.1039C56.3472 50.8238 50.3301 50.6342 44.4052 47.535C38.7432 44.213 35.407 39.2906 34.3965 32.7677C33.706 26.0967 35.7319 20.4157 40.4741 15.7246C41.7206 14.5816 43.0827 13.5988 44.5603 12.7763C44.7056 12.6863 44.8608 12.6259 45.0259 12.5953C45.0627 13.9937 45.2438 15.373 45.569 16.7332C45.6736 17.1334 45.8288 17.5127 46.0345 17.8712C45.9217 12.033 47.9648 7.11057 52.1638 3.10392C53.5836 1.86526 55.1353 0.822156 56.819 -0.0253906Z" fill="#FE6600"/>
<path opacity="0.971" fill-rule="evenodd" clip-rule="evenodd" d="M62.0431 1.93991C62.0886 1.93314 62.1228 1.95038 62.1465 1.99163C61.7824 3.70574 61.739 5.42989 62.0172 7.16405C62.1729 8.11541 62.3281 9.06367 62.4828 10.0089C61.7379 9.26089 60.8669 8.70056 59.8707 8.32784C59.2981 8.09953 58.7115 7.91849 58.1121 7.78474C58.7198 5.96498 59.6596 4.34427 60.931 2.92267C61.2962 2.58282 61.6671 2.25523 62.0431 1.93991Z" fill="#FE6600"/>
<path opacity="0.993" fill-rule="evenodd" clip-rule="evenodd" d="M119.974 11.9746C119.974 11.9918 119.974 12.0091 119.974 12.0263C118.418 12.6666 116.918 13.4166 115.474 14.2763C114.341 14.9953 113.332 15.866 112.448 16.8884C111.647 17.8446 110.906 18.8446 110.224 19.8884C108.444 22.8108 106.651 25.7246 104.845 28.6297C102.432 32.3192 99.7428 35.802 96.7759 39.078C95.1715 40.7865 93.4728 42.3814 91.6811 43.8625C88.6651 46.3546 85.3201 48.3201 81.6466 49.7591C78.3854 50.969 75.0234 51.6329 71.5604 51.7504C70.888 51.7504 70.2156 51.7504 69.5432 51.7504C66.4842 51.62 63.4671 51.1631 60.4915 50.3797C64.6578 50.4676 68.4854 49.3814 71.9742 47.1211C74.2816 45.6081 76.3765 43.8237 78.2587 41.7677C80.879 38.8202 83.2413 35.6822 85.3449 32.3539C87.7211 28.5162 89.9799 24.6024 92.1208 20.6125C94.7587 16.1468 98.4399 12.8451 103.164 10.7073C107.811 8.7563 112.484 8.6873 117.181 10.5004C118.153 10.9258 119.084 11.4172 119.974 11.9746ZM106.991 11.8711C108.453 11.0423 110.031 10.6285 111.724 10.6298C113.732 10.7105 115.671 11.1158 117.543 11.8453C114.934 12.5717 112.624 13.8217 110.612 15.5953C110.535 15.5514 110.5 15.4825 110.509 15.3884C110.555 14.37 110.788 13.4045 111.207 12.4918C109.829 12.1139 108.424 11.907 106.991 11.8711Z" fill="#FE6600"/>
<path opacity="0.994" fill-rule="evenodd" clip-rule="evenodd" d="M-0.0258789 11.9742C12.3535 11.957 24.7328 11.9742 37.112 12.026C34.9726 13.6701 33.2571 15.67 31.9655 18.026C31.4888 18.8844 31.0319 19.7551 30.5948 20.638C23.2845 20.6639 15.9742 20.6725 8.66378 20.6639C8.66378 23.0777 8.66378 25.4915 8.66378 27.9053C15.0603 27.9053 21.4569 27.9053 27.8534 27.9053C27.8534 30.8018 27.8534 33.6984 27.8534 36.5949C21.4569 36.5949 15.0603 36.5949 8.66378 36.5949C8.66378 40.2673 8.66378 43.9398 8.66378 47.6122C5.76722 47.6122 2.87067 47.6122 -0.0258789 47.6122C-0.0258789 35.7328 -0.0258789 23.8536 -0.0258789 11.9742Z" fill="#FE6600"/>
<path opacity="0.994" fill-rule="evenodd" clip-rule="evenodd" d="M72.1294 12.0254C76.2068 11.9651 80.293 11.9565 84.388 11.9996C86.5868 14.1899 88.7768 16.3882 90.957 18.5944C89.4828 21.1978 88.0087 23.8013 86.5346 26.4047C81.7397 21.6012 76.9382 16.8081 72.1294 12.0254Z" fill="#FE6600"/>
<path opacity="0.993" fill-rule="evenodd" clip-rule="evenodd" d="M119.974 47.5604C119.974 47.5776 119.974 47.5949 119.974 47.6121C115.888 47.6207 111.802 47.6121 107.716 47.5862C104.939 44.8104 102.164 42.0345 99.3879 39.2587C101.141 36.933 102.899 34.6141 104.664 32.3018C109.768 37.389 114.872 42.4753 119.974 47.5604Z" fill="#FE6600"/>
</g>
<defs>
<clipPath id="clip0_1_308">
<rect width="120" height="52" fill="white"/>
</clipPath>
</defs>
</svg>
