<svg width="46" height="63" viewBox="0 0 46 63" fill="none" xmlns="http://www.w3.org/2000/svg">
<path d="M23.51 51.523C23.5041 51.6516 23.4488 51.7729 23.3557 51.8618C23.2625 51.9506 23.1387 52.0001 23.01 52C22.72 52 22.5 51.79 22.49 51.523C22.345 48.355 20.734 46.306 17.658 45.376C7.53 42.968 0 33.863 0 23C0 10.297 10.297 0 23 0C35.703 0 46 10.297 46 23C46 33.863 38.47 42.968 28.342 45.376C25.266 46.306 23.655 48.356 23.512 51.523H23.51Z" fill="#FF4433"/>
<path d="M23 63C20.79 63 19 61.21 19 59C19 56.79 20.79 55 23 55C25.21 55 27 56.79 27 59C27 61.21 25.21 63 23 63Z" fill="white"/>
<path fill-rule="evenodd" clip-rule="evenodd" d="M23 61C23.2663 61.006 23.5311 60.9588 23.779 60.861C24.0268 60.7633 24.2526 60.617 24.4431 60.4308C24.6336 60.2446 24.785 60.0222 24.8884 59.7766C24.9918 59.5311 25.0451 59.2674 25.0452 59.001C25.0452 58.7346 24.9921 58.4708 24.8888 58.2253C24.7855 57.9797 24.6343 57.7572 24.4438 57.5709C24.2534 57.3846 24.0277 57.2382 23.7799 57.1403C23.5321 57.0425 23.2673 56.9951 23.0009 57.001C22.4784 57.0125 21.9811 57.2282 21.6156 57.6018C21.25 57.9754 21.0453 58.4773 21.0452 59C21.045 59.5227 21.2495 60.0246 21.6149 60.3984C21.9802 60.7722 22.4774 60.9882 23 61Z" fill="#FF4433"/>
<path fill-rule="evenodd" clip-rule="evenodd" d="M21 29.2V34H32.4C32.4788 34 32.5568 33.9845 32.6296 33.9543C32.7024 33.9242 32.7685 33.88 32.8243 33.8243C32.88 33.7685 32.9242 33.7024 32.9543 33.6296C32.9845 33.5568 33 33.4788 33 33.4V19.6C33 19.5212 32.9845 19.4432 32.9543 19.3704C32.9242 19.2976 32.88 19.2315 32.8243 19.1757C32.7685 19.12 32.7024 19.0758 32.6296 19.0457C32.5568 19.0155 32.4788 19 32.4 19H27.446L27.288 21H31V22H27.21L27.051 24H31V25H26.972L26.599 29.715C26.5966 29.7549 26.5863 29.7939 26.5687 29.8299C26.5512 29.8658 26.5267 29.8978 26.4966 29.9242C26.4666 29.9506 26.4317 29.9708 26.3938 29.9837C26.3559 29.9965 26.3159 30.0017 26.276 29.999C26.1996 29.9915 26.1289 29.9555 26.0778 29.8983C26.0266 29.8411 25.9989 29.7667 26 29.69V13.4C26 13.2939 25.9579 13.1922 25.8828 13.1172C25.8078 13.0421 25.7061 13 25.6 13H25V12.4C25 12.2939 24.9579 12.1922 24.8828 12.1172C24.8078 12.0421 24.7061 12 24.6 12H14.4C14.2939 12 14.1922 12.0421 14.1172 12.1172C14.0421 12.1922 14 12.2939 14 12.4V13H13.4C13.2939 13 13.1922 13.0421 13.1172 13.1172C13.0421 13.1922 13 13.2939 13 13.4V33.4C13 33.5591 13.0632 33.7117 13.1757 33.8243C13.2883 33.9368 13.4409 34 13.6 34H18V29.2C18 29.09 18.09 29 18.2 29H20.8C20.91 29 21 29.09 21 29.2ZM16.5 26V20H18.5V26H16.5ZM20.5 20V26H22.5V20H20.5ZM16.5 18V15H18.5V18H16.5ZM20.5 15V18H22.5V15H20.5ZM28 28V27H31V28H28Z" fill="white"/>
<path d="M27.526 18L27.605 17H30.6C30.82 17 31 17.18 31 17.4V18H27.526Z" fill="white"/>
</svg>
