<svg width="11" height="12" viewBox="0 0 11 12" fill="none" xmlns="http://www.w3.org/2000/svg">
<path d="M4.30273 5.18359C4.30273 5.18359 4.30273 3.74154 4.30273 0.857422C4.30273 0.857422 4.8138 0.857422 5.83594 0.857422C5.83594 0.857422 5.83594 2.29948 5.83594 5.18359C5.83594 5.18359 7.25846 5.18359 10.1035 5.18359C10.1035 5.18359 10.1035 5.67513 10.1035 6.6582C10.1035 6.6582 8.68099 6.6582 5.83594 6.6582C5.83594 6.6582 5.83594 8.11328 5.83594 11.0234C5.83594 11.0234 5.32487 11.0234 4.30273 11.0234C4.30273 11.0234 4.30273 9.56836 4.30273 6.6582C4.30273 6.6582 2.8737 6.6582 0.015625 6.6582C0.015625 6.6582 0.015625 6.16667 0.015625 5.18359C0.015625 5.18359 1.44466 5.18359 4.30273 5.18359Z" fill="#282828" fill-opacity="0.4"/>
</svg>
