<svg width="50" height="50" viewBox="0 0 50 50" fill="none" xmlns="http://www.w3.org/2000/svg">
<circle cx="25" cy="25" r="25" transform="rotate(90 25 25)" fill="#FF6600"/>
<g clip-path="url(#clip0_156_3444)">
<path d="M19.5787 22.0333C19.3488 22.2555 19.3488 22.6253 19.5787 22.8553C19.8009 23.0774 20.1707 23.0774 20.3924 22.8553L24.56 18.6876L24.56 32.4402C24.5605 32.7608 24.8153 33.0156 25.1359 33.0156C25.4565 33.0156 25.7196 32.7608 25.7196 32.4402L25.7196 18.6876L29.8794 22.8552C30.1094 23.0774 30.4797 23.0774 30.7014 22.8552C30.9313 22.6253 30.9313 22.255 30.7014 22.0333L25.5471 16.8791C25.3249 16.6491 24.9551 16.6491 24.7335 16.8791L19.5787 22.0333Z" fill="#F9F9F9"/>
</g>
<defs>
<clipPath id="clip0_156_3444">
<rect x="16.9844" y="33.0156" width="16.309" height="16.309" rx="8.15451" transform="rotate(-90 16.9844 33.0156)" fill="white"/>
</clipPath>
</defs>
</svg>
