<svg width="48" height="48" viewBox="0 0 48 48" fill="none" xmlns="http://www.w3.org/2000/svg">
<g clip-path="url(#clip0_54_448)">
<path d="M24 48C37.2548 48 48 37.2548 48 24C48 10.7452 37.2548 0 24 0C10.7452 0 0 10.7452 0 24C0 37.2548 10.7452 48 24 48Z" fill="#171A2A" fill-opacity="0.2"/>
<path fill-rule="evenodd" clip-rule="evenodd" d="M24.791 37.3524H24.7851C22.3966 37.3515 20.0497 36.7523 17.9652 35.6153L10.3999 37.5998L12.4245 30.2047C11.1756 28.0404 10.5185 25.5853 10.5195 23.0701C10.5227 15.2015 16.9247 8.7998 24.7908 8.7998C28.6085 8.80145 32.1917 10.2877 34.8861 12.9853C37.5805 15.6827 39.0635 19.2682 39.062 23.0814C39.0589 30.9481 32.6594 37.3492 24.791 37.3524ZM18.3158 33.0317L18.7489 33.2888C20.5701 34.3695 22.6577 34.9414 24.7862 34.9422H24.791C31.3287 34.9422 36.6498 29.621 36.6524 23.0805C36.6537 19.9111 35.4211 16.9309 33.1816 14.6888C30.9421 12.4467 27.9639 11.2114 24.7956 11.2103C18.2528 11.2103 12.9317 16.531 12.9291 23.0709C12.9282 25.3122 13.5553 27.495 14.7426 29.3835L15.0247 29.8323L13.8264 34.2094L18.3158 33.0317ZM31.4923 26.1539C31.741 26.2741 31.909 26.3553 31.9807 26.475C32.0698 26.6237 32.0698 27.3376 31.7728 28.1707C31.4755 29.0036 30.0509 29.7638 29.3658 29.8662C28.7515 29.958 27.974 29.9963 27.1198 29.7249C26.6019 29.5606 25.9378 29.3412 25.087 28.9737C21.7441 27.5303 19.4849 24.2902 19.0579 23.6779C19.028 23.635 19.0071 23.605 18.9954 23.5894L18.9926 23.5856C18.8039 23.3338 17.5394 21.6467 17.5394 19.9006C17.5394 18.2581 18.3462 17.3972 18.7176 17.0009C18.7431 16.9737 18.7665 16.9487 18.7874 16.9259C19.1143 16.5689 19.5006 16.4796 19.7383 16.4796C19.976 16.4796 20.214 16.4818 20.4218 16.4922C20.4474 16.4935 20.4741 16.4934 20.5016 16.4932C20.7094 16.492 20.9685 16.4905 21.2241 17.1044C21.3224 17.3406 21.4663 17.6909 21.618 18.0603C21.9248 18.8073 22.2639 19.6326 22.3235 19.7521C22.4127 19.9306 22.4721 20.1387 22.3532 20.3768C22.3354 20.4125 22.3189 20.4462 22.3031 20.4784C22.2138 20.6606 22.1482 20.7947 21.9966 20.9716C21.9371 21.0412 21.8755 21.1162 21.8139 21.1912C21.6912 21.3406 21.5686 21.49 21.4618 21.5964C21.2832 21.7742 21.0974 21.9671 21.3054 22.3241C21.5134 22.6811 22.2291 23.8488 23.2891 24.7943C24.4287 25.8107 25.4191 26.2403 25.9211 26.4581C26.0191 26.5006 26.0985 26.5351 26.1568 26.5642C26.5132 26.7428 26.7212 26.7129 26.9293 26.475C27.1373 26.237 27.8207 25.4337 28.0583 25.0768C28.296 24.7199 28.5338 24.7794 28.8606 24.8983C29.1876 25.0174 30.9407 25.88 31.2973 26.0584C31.3669 26.0933 31.432 26.1248 31.4923 26.1539Z" fill="#FDFDFD"/>
</g>
<defs>
<clipPath id="clip0_54_448">
<rect width="48" height="48" fill="white"/>
</clipPath>
</defs>
</svg>
