<svg width="16" height="16" viewBox="0 0 16 16" fill="none" xmlns="http://www.w3.org/2000/svg">
<g clip-path="url(#clip0_83_4529)">
<path d="M2.5442 10.7742C2.3186 10.5562 2.3186 10.1935 2.5442 9.96786C2.76217 9.74989 3.12495 9.74989 3.34242 9.96786L7.43108 14.0565L7.43108 0.564497C7.43159 0.249984 7.68157 2.31958e-07 7.99609 2.45706e-07C8.3106 2.59453e-07 8.56871 0.249984 8.56871 0.564497L8.56871 14.0565L12.6498 9.96786C12.8753 9.74989 13.2386 9.74989 13.4561 9.96786C13.6817 10.1935 13.6817 10.5567 13.4561 10.7742L8.39952 15.8308C8.18154 16.0564 7.81876 16.0564 7.60129 15.8308L2.5442 10.7742Z" fill="#FF6600"/>
</g>
<defs>
<clipPath id="clip0_83_4529">
<rect width="16" height="16" rx="8" transform="matrix(-4.37114e-08 1 1 4.37114e-08 0 0)" fill="white"/>
</clipPath>
</defs>
</svg>
