<svg width="48" height="48" viewBox="0 0 48 48" fill="none" xmlns="http://www.w3.org/2000/svg">
<circle cx="24" cy="24" r="24" fill="#FF6600"/>
<g clip-path="url(#clip0_83_4626)">
<path d="M27.3417 26.1119L26.8446 26.609C26.57 26.8836 26.57 27.3288 26.8446 27.6034L28.8331 29.5919C28.9704 29.7292 29.1504 29.7979 29.3303 29.7979C29.5102 29.7979 29.6902 29.7292 29.8275 29.5919L35.793 23.6263C36.0676 23.3517 36.0676 22.9065 35.793 22.6319L33.8045 20.6434C33.53 20.3688 33.0848 20.3688 32.8102 20.6434L32.3131 21.1405L26.8584 15.6859L27.3555 15.1888C27.6301 14.9142 27.6301 14.4691 27.3555 14.1945L25.367 12.2059C25.0925 11.9314 24.6473 11.9314 24.3727 12.2059L18.4071 18.1715C18.1325 18.4461 18.1325 18.8913 18.4071 19.1659L20.3956 21.1544C20.5329 21.2917 20.7128 21.3604 20.8927 21.3604C21.0727 21.3604 21.2527 21.2917 21.3899 21.1544L21.887 20.6573L23.1227 21.8931L12.6168 32.399C11.7944 33.2215 11.7944 34.5597 12.6168 35.3822C13.4392 36.2045 14.7775 36.2045 15.5999 35.3822L26.1059 24.8762L27.3417 26.1119ZM34.3015 23.1291L29.3303 28.1003L28.3362 27.1062L33.3074 22.135L34.3015 23.1291ZM19.8986 18.6687L24.8699 13.6975L25.864 14.6916L20.8928 19.6628L19.8986 18.6687ZM25.8641 16.6803L31.3187 22.1349L28.336 25.1176L22.8814 19.663L25.8641 16.6803ZM14.6055 34.3878C14.3314 34.662 13.8854 34.662 13.6112 34.3878C13.337 34.1136 13.337 33.6676 13.6112 33.3934L21.1344 25.8702L22.1288 26.8646L14.6055 34.3878ZM23.1231 25.8702L22.1287 24.8758L24.1171 22.8874L25.1115 23.8818L23.1231 25.8702Z" fill="#F9F9F9"/>
<path d="M35.2949 34.5938H34.5918V33.8906C34.5918 32.7275 33.6455 31.7812 32.4824 31.7812H26.7637C25.6006 31.7812 24.6543 32.7275 24.6543 33.8906V34.5938H23.9512C23.5629 34.5938 23.248 34.9086 23.248 35.2969C23.248 35.6852 23.5629 36 23.9512 36H35.2949C35.6832 36 35.998 35.6852 35.998 35.2969C35.998 34.9086 35.6833 34.5938 35.2949 34.5938ZM26.0605 33.8906C26.0605 33.5029 26.376 33.1875 26.7637 33.1875H32.4824C32.8701 33.1875 33.1855 33.5029 33.1855 33.8906V34.5938H26.0605V33.8906Z" fill="#F9F9F9"/>
</g>
<defs>
<clipPath id="clip0_83_4626">
<rect width="24" height="24" fill="white" transform="translate(12 12)"/>
</clipPath>
</defs>
</svg>
