<svg width="18" height="18" viewBox="0 0 18 18" fill="none" xmlns="http://www.w3.org/2000/svg">
<circle cx="9" cy="9" r="9" fill="#FF6600"/>
<g clip-path="url(#clip0_1_203)">
<path fill-rule="evenodd" clip-rule="evenodd" d="M8.99989 13.8745C8.95054 13.8748 8.90162 13.8654 8.85593 13.8467C8.81024 13.8281 8.76868 13.8006 8.73364 13.7658L6.08239 11.1408C5.69962 10.7605 5.39583 10.3083 5.18853 9.8102C4.98123 9.31207 4.87451 8.77785 4.87451 8.2383C4.87451 7.69875 4.98123 7.16453 5.18853 6.6664C5.39583 6.16826 5.69962 5.71605 6.08239 5.3358C6.8594 4.56817 7.90764 4.1377 8.99989 4.1377C10.0921 4.1377 11.1404 4.56817 11.9174 5.3358C12.3002 5.71605 12.604 6.16826 12.8113 6.6664C13.0186 7.16453 13.1253 7.69875 13.1253 8.2383C13.1253 8.77785 13.0186 9.31207 12.8113 9.8102C12.604 10.3083 12.3002 10.7605 11.9174 11.1408L9.26614 13.7658C9.2311 13.8006 9.18955 13.8281 9.14386 13.8467C9.09817 13.8654 9.04924 13.8748 8.99989 13.8745ZM7.95831 9.80901C8.26665 10.015 8.62916 10.125 9 10.125C9.49728 10.125 9.9742 9.92746 10.3258 9.57583C10.6775 9.2242 10.875 8.74728 10.875 8.25C10.875 7.87916 10.765 7.51665 10.559 7.20831C10.353 6.89996 10.0601 6.65964 9.71753 6.51773C9.37492 6.37581 8.99792 6.33868 8.63421 6.41103C8.27049 6.48338 7.9364 6.66195 7.67418 6.92418C7.41195 7.1864 7.23338 7.52049 7.16103 7.88421C7.08868 8.24792 7.12581 8.62492 7.26773 8.96753C7.40964 9.31014 7.64996 9.60298 7.95831 9.80901Z" fill="#F9F9F9"/>
</g>
<defs>
<clipPath id="clip0_1_203">
<rect width="12" height="12" fill="white" transform="translate(3 3)"/>
</clipPath>
</defs>
</svg>
