<svg width="18" height="18" viewBox="0 0 18 18" fill="none" xmlns="http://www.w3.org/2000/svg">
<circle cx="9" cy="9" r="9" fill="#FF6600"/>
<g clip-path="url(#clip0_1_248)">
<path d="M8.07471 5.68772C7.91595 5.66885 7.77268 5.78572 7.75626 5.94749C7.74039 6.10379 7.85726 6.24706 8.0134 6.26273L10.9453 6.56031L5.61688 10.9067C5.49284 11.0083 5.47464 11.1875 5.57596 11.3117C5.67728 11.4359 5.85916 11.4574 5.98337 11.356L11.3118 7.0096L11.0117 9.93848C10.9983 10.0978 11.1154 10.2413 11.2715 10.2569C11.4333 10.2734 11.5768 10.1563 11.59 9.99717L11.958 6.37119C11.9769 6.21243 11.86 6.06916 11.7008 6.05595L8.07471 5.68772Z" fill="#F9F9F9"/>
</g>
<defs>
<clipPath id="clip0_1_248">
<rect x="3" y="8.1543" width="8.15451" height="8.15451" rx="4.07725" transform="rotate(-39.2044 3 8.1543)" fill="white"/>
</clipPath>
</defs>
</svg>
