<svg width="130" height="19" viewBox="0 0 130 19" fill="none" xmlns="http://www.w3.org/2000/svg">
<path d="M129.468 2.5648C129.468 1.67761 128.748 0.957827 127.861 0.957827C126.98 0.957937 126.254 1.68343 126.254 2.56469C126.254 3.44605 126.98 4.17111 127.861 4.17133C128.743 4.17166 129.467 3.44627 129.468 2.5648ZM125.982 2.56469C125.982 1.5335 126.83 0.685547 127.861 0.685547C128.897 0.685547 129.74 1.52789 129.74 2.56425C129.74 3.59522 128.892 4.44328 127.861 4.44361C126.83 4.44394 125.982 3.59588 125.982 2.56469Z" fill="#F9F9F9"/>
<path fill-rule="evenodd" clip-rule="evenodd" d="M127.806 1.18368C127.855 1.64415 128.226 1.38253 128.386 1.25392C128.444 1.20765 128.516 1.12246 128.555 1.09849C128.58 1.08354 128.617 1.0941 128.632 1.12542C128.647 1.1717 128.653 1.23007 128.625 1.31526C128.591 1.4154 128.532 1.51257 128.499 1.5649C128.414 1.70241 128.331 1.82344 128.23 1.95051C128.067 2.15387 127.861 2.31524 127.691 2.51409C127.429 2.81901 127.281 3.28993 127.362 3.68752C127.383 3.78909 127.431 3.9177 127.528 3.97145C128.105 4.29144 128.528 2.91915 128.332 2.51409C128.305 2.46176 128.251 2.36756 128.18 2.38108C127.818 2.44835 127.65 3.62321 127.876 3.70841C127.865 3.84746 127.644 3.93265 127.58 3.67554C127.559 3.58584 127.555 3.49164 127.558 3.39897C127.569 3.00731 127.882 2.41538 128.241 2.23455C128.404 2.15079 128.634 2.15233 128.725 2.3392C129.047 3.00435 128.178 4.23307 127.426 4.12095C127.063 4.06566 126.931 3.71742 126.96 3.38699C126.982 3.11504 127.096 2.85639 127.253 2.63511C127.57 2.1897 128.069 2.05966 128.311 1.70989C128.311 1.70989 128.32 1.69648 128.322 1.689C128.326 1.67801 128.313 1.66504 128.297 1.67801C128.27 1.70197 128.131 1.77375 128.033 1.78562C127.838 1.80805 127.732 1.54049 127.699 1.39254C127.691 1.35967 127.689 1.33428 127.658 1.37605C127.563 1.50015 127.489 2.19377 127.392 2.23257L127.012 2.38361C127.012 2.38361 126.996 2.3913 126.99 2.36866C126.947 2.20718 127.338 1.64668 127.448 1.45827C127.462 1.43442 127.552 1.25953 127.569 1.24601C127.597 1.22216 127.77 1.17775 127.806 1.18368Z" fill="#F9F9F9"/>
<path d="M14.1031 14.3642H8.87416L5.67165 9.05424L4.63111 10.1369V14.3642H0.26001V1.00488H4.63111V5.31663L8.37906 1.00488H13.5057L8.69894 5.9876L14.1031 14.3642ZM19.9558 9.40809C19.9558 8.79724 19.8124 8.24334 19.5254 7.75275C19.2385 7.26216 18.7956 7.01528 18.1906 7.01528C17.651 7.01528 17.2425 7.26216 16.968 7.75594C16.6936 8.25279 16.5564 8.80362 16.5564 9.40809C16.5564 10.057 16.7029 10.671 16.9962 11.2439C17.2862 11.8199 17.7352 12.1079 18.3371 12.1079C18.9173 12.1079 19.3321 11.8294 19.5816 11.2692C19.8311 10.709 19.9558 10.0886 19.9558 9.40809ZM22.9874 12.418C21.9546 13.9496 20.1843 14.6663 18.3533 14.6663C16.4663 14.6663 14.6477 13.9556 13.5931 12.3632C12.6257 10.9023 12.502 8.52024 13.3168 6.96152C13.9437 5.76193 15.0927 4.89485 16.4102 4.54255C17.8613 4.13979 19.4319 4.22685 20.825 4.80153C22.1278 5.33686 23.097 6.43829 23.519 7.74759C23.9798 9.17714 23.8154 11.1901 22.9874 12.418ZM56.8614 8.42812C56.7247 7.79188 56.4998 7.35087 56.1896 7.10508C55.8765 6.85567 55.4814 6.73277 54.998 6.73277C54.5299 6.73277 54.159 6.85215 53.8854 7.0942C53.6118 7.33284 53.405 7.77748 53.2621 8.42812H56.8614ZM60.6007 10.3148H53.2999C53.2999 10.6156 53.3516 10.8795 53.4549 11.1095C53.7691 11.8089 54.3375 12.281 55.1513 12.281C55.7489 12.281 56.4381 12.0404 56.5666 11.3913H60.3058C60.1639 12.3124 59.576 13.125 58.8193 13.659C58.0559 14.1961 57.1183 14.4953 56.1927 14.601C55.0055 14.7468 53.632 14.7072 52.5326 14.2481C51.2535 13.7165 50.2984 12.7337 49.7783 11.4654C49.3006 10.2292 49.2941 8.85803 49.7571 7.61194C50.2373 6.31924 51.2261 5.31949 52.5083 4.78933C54.0675 4.14737 56.2506 4.1909 57.7583 4.94267C59.0961 5.60727 60.0086 6.74025 60.3879 8.17024C60.5751 8.88958 60.6462 9.5788 60.6007 10.3148ZM71.0737 12.4366C70.3553 13.8059 69.0286 14.6612 67.4295 14.6612C66.281 14.6612 65.5255 14.2879 64.7493 13.4913V17.6803H60.8543V4.6628H64.3031V6.11423C65.0513 4.62356 66.9028 4.08197 68.3967 4.45802C70.0242 4.86396 71.1204 6.2324 71.5105 7.77045C71.8753 9.2 71.7488 11.1595 71.0737 12.4366ZM67.9011 9.27145C67.9011 8.86001 67.7646 8.41086 67.4884 7.92709C67.2123 7.44343 66.812 7.2016 66.2908 7.2016C65.7727 7.2016 65.3725 7.42771 65.0933 7.88312C64.814 8.33546 64.6744 8.79713 64.6744 9.27145C64.6744 9.85262 64.783 10.396 65.0002 10.8985C65.2204 11.4011 65.6486 11.6524 66.2908 11.6524C66.9176 11.6524 67.3396 11.3917 67.566 10.8703C67.771 10.3671 67.9011 9.81678 67.9011 9.27145ZM80.0901 14.2525C78.5766 14.7826 76.5195 14.8639 75.0127 14.2369C74.0638 13.8422 73.2228 13.176 72.6916 12.2903C72.1725 11.4396 71.9027 10.4595 71.9027 9.46184C71.9027 8.79736 72.0425 8.14441 72.2774 7.52444C72.8218 6.1304 73.7632 5.33048 75.1223 4.77636C76.6777 4.1421 78.988 4.16518 80.4649 4.96883C81.8723 5.73478 82.6091 6.78961 82.8026 8.34414H78.817C78.7469 7.86597 78.612 7.57039 78.4149 7.31822C77.8567 6.6035 76.5931 6.95273 76.1898 7.658C75.6754 8.55794 75.5903 9.88724 75.9157 10.8737C76.1302 11.5239 76.8365 12.0752 77.5225 12.0752C78.4951 12.0752 78.697 11.4202 78.951 10.6061H82.8026C82.7623 12.2339 81.789 13.6574 80.0901 14.2525ZM89.9074 10.5494C89.9074 10.3688 89.8911 10.2205 89.8585 10.1076C89.5912 10.2559 89.174 10.385 88.6069 10.4946C88.1749 10.5735 87.7155 10.67 87.3292 10.8816C86.7817 11.1524 86.8113 11.9287 87.2901 12.2424C87.8441 12.5756 88.7733 12.5482 89.2392 12.0812C89.6825 11.6587 89.9074 11.1493 89.9074 10.5494ZM94.2409 14.3642H90.254L90.1025 13.3366C89.8117 13.7122 89.1623 14.0217 88.5065 14.2742C88.1869 14.3973 87.8583 14.4947 87.5221 14.5567C87.1858 14.6157 86.8283 14.6468 86.4558 14.6468C85.7833 14.6468 85.1683 14.5289 84.6109 14.2929C84.0535 14.0569 83.6325 13.6874 83.3417 13.1907C83.0811 12.6442 82.9509 12.0915 82.9509 11.5265C82.9509 10.8124 83.2835 10.2235 83.7407 9.69565C84.0013 9.39457 84.2566 9.22539 84.7169 9.04853C84.935 8.96477 85.1507 8.892 85.3622 8.83121C85.5717 8.77097 85.7702 8.71359 85.9589 8.68523L87.5917 8.43999C88.2847 8.33589 88.955 8.24609 89.2513 8.14815C89.4335 8.0878 89.6485 7.89081 89.7546 7.7666C89.8606 7.6425 89.845 7.51202 89.845 7.37857C89.845 7.19533 89.7571 7.0432 89.5784 6.91909C89.3998 6.79488 89.1452 6.73277 88.8151 6.73277C88.4183 6.73277 87.9249 6.7918 87.6856 6.90975C87.4463 7.0277 87.2918 7.2637 87.2191 7.61447H83.526C83.6502 6.97801 83.6277 6.60647 83.8082 6.21778C83.9881 5.8303 84.2717 5.49756 84.6594 5.22121C85.0471 4.94498 85.5796 4.73019 86.2619 4.58784C86.5913 4.51913 86.983 4.47121 87.4282 4.4357C87.8766 4.39987 88.3733 4.37986 88.9246 4.37986C90.2665 4.37986 91.2717 4.53947 91.9417 4.85792C92.6105 5.17593 93.0468 5.43216 93.2504 5.90999C93.4527 6.3853 93.5896 7.00285 93.6533 7.76045V12.8895C93.6533 13.4173 93.8501 13.8085 94.2409 14.0631V14.3642ZM105.075 14.3642H101.229V10.7384H98.3805V14.3642H94.5715L94.5679 4.81406L94.5715 4.66808H98.3805V7.91698H101.186V4.66808H105.075L105.071 14.1904L105.075 14.3642ZM115.762 7.52576H112.45V14.3642H108.592V7.52576H105.252V4.66808H115.762V7.52576ZM128.254 11.2614C128.254 12.1131 127.848 12.8613 127.196 13.395C126.339 14.1042 125.153 14.3642 124.064 14.3642H118.111V7.52576H115.887V4.66808H121.823V8.0712H123.853C124.984 8.0712 126.237 8.29226 127.133 9.03468C127.807 9.59276 128.254 10.3733 128.254 11.2614ZM124.42 11.2713C124.42 10.6587 124.081 10.4017 123.498 10.3319C123.38 10.3319 123.145 10.322 122.799 10.3071C122.452 10.2917 121.988 10.2855 121.823 10.2855V12.1581L122.787 12.1767C123.05 12.1823 123.267 12.1712 123.434 12.1581C124.027 12.1142 124.42 11.9533 124.42 11.2713ZM31.2362 14.3641H29.3668L27.3243 7.88686L27.6397 10.4257V14.3641H24.2288V4.61213H28.6033L30.3015 9.99893L31.9997 4.61213H36.3744V14.3641H32.9633V10.4257L33.2788 7.88686L31.2362 14.3641ZM44.0097 14.3641H42.1404L40.0978 7.88686L40.4133 10.4257V14.3641H37.0022V4.61213H41.3769L43.0751 9.99893L44.7733 4.61213H49.1478V14.3641H45.7369V10.4257L46.0523 7.88686L44.0097 14.3641Z" fill="#F9F9F9"/>
</svg>
