<svg width="18" height="18" viewBox="0 0 18 18" fill="none" xmlns="http://www.w3.org/2000/svg">
<circle cx="9" cy="9" r="9" fill="#FF6600"/>
<g clip-path="url(#clip0_1_212)">
<path d="M12.964 11.3766L12.9242 11.2567C12.8299 10.9763 12.5208 10.684 12.2368 10.607L11.1857 10.3199C10.9007 10.2423 10.4942 10.3466 10.2856 10.5551L9.90523 10.9355C8.52282 10.5619 7.4388 9.47789 7.06575 8.09575L7.44616 7.71534C7.65469 7.50681 7.75894 7.10077 7.6814 6.81575L7.3948 5.7642C7.31726 5.4797 7.02438 5.17058 6.7446 5.07731L6.62462 5.03697C6.34431 4.94371 5.94454 5.03803 5.73603 5.24655L5.16702 5.81607C5.06537 5.91719 5.0004 6.2064 5.0004 6.20746C4.9805 8.014 5.68886 9.75451 6.96673 11.0324C8.24147 12.3071 9.97546 13.0145 11.7768 12.9993C11.7862 12.9993 12.0838 12.9353 12.1854 12.8342L12.7544 12.2652C12.9629 12.0567 13.0573 11.6569 12.964 11.3766Z" fill="#F9F9F9"/>
</g>
<defs>
<clipPath id="clip0_1_212">
<rect width="8" height="8" fill="white" transform="translate(5 5)"/>
</clipPath>
</defs>
</svg>
