<svg width="50" height="50" viewBox="0 0 50 50" fill="none" xmlns="http://www.w3.org/2000/svg">
<circle cx="25" cy="25" r="24.75" transform="rotate(-180 25 25)" stroke="#F9F9F9" stroke-width="0.5"/>
<path d="M22.8643 27.5836L20.551 25.2703C20.4265 25.1454 20.2574 25.0753 20.081 25.0753C19.9047 25.0753 19.7356 25.1454 19.611 25.2703C19.351 25.5303 19.351 25.9503 19.611 26.2103L22.3977 28.9969C22.6577 29.2569 23.0777 29.2569 23.3377 28.9969L30.391 21.9436C30.651 21.6836 30.651 21.2636 30.391 21.0036C30.2664 20.8788 30.0974 20.8086 29.921 20.8086C29.7446 20.8086 29.5756 20.8788 29.451 21.0036L22.8643 27.5836Z" fill="#F9F9F9"/>
</svg>
