<svg width="128" height="80" viewBox="0 0 128 80" fill="none" xmlns="http://www.w3.org/2000/svg">
<g clip-path="url(#clip0_83_1442)">
<path fill-rule="evenodd" clip-rule="evenodd" d="M48.6455 79.0997C42.8814 77.7224 39.8549 73.5566 38.5626 68.0986C37.0323 61.6544 37.1514 55.1592 39.1917 48.8C40.79 43.8521 44.1737 40.7915 49.2406 39.6353C53.6274 38.6321 58.0483 38.6491 62.3671 39.7543C67.349 41.0295 70.4266 44.4472 71.8889 49.2421C73.9633 55.9753 73.8442 62.8106 71.8719 69.5439C70.1035 75.58 65.8187 78.7596 59.7146 79.5928C55.4808 80.2219 50.9069 79.6268 48.6455 79.0997ZM50.1248 59.512C50.4308 62.9637 50.2268 66.4663 50.6859 69.918C51.026 72.3664 52.9473 73.7097 55.4808 73.7437C57.8952 73.7777 59.8336 72.4854 60.2077 70.139C61.0238 62.8616 60.9558 56.0774 60.2077 49.021C59.7486 46.3685 57.8272 45.0763 55.2257 45.1953C52.7263 45.2973 50.9409 46.6746 50.6009 49.2421C50.1928 52.5917 50.4308 56.0094 50.1248 59.512Z" fill="#282828"/>
<path fill-rule="evenodd" clip-rule="evenodd" d="M110.333 69.2538C108.887 74.7458 105.283 78.1804 99.6547 79.3197C95.5399 80.1358 91.4081 80.1358 87.3443 79.1836C81.8863 77.9084 78.6557 74.2017 77.2274 69.0157C75.4081 62.3675 75.5271 55.7022 77.5335 49.122C79.1318 43.817 82.7365 40.6204 88.1775 39.5322C92.4453 38.682 96.6961 38.682 100.896 39.8213C107.578 41.6236 110.18 46.7926 111.234 53.0327C111.999 59.4599 111.523 65.5301 110.333 69.2538ZM88.5006 59.3919C88.7726 62.8946 88.5006 66.2442 88.9596 69.6108C89.3507 72.3313 91.1021 73.6746 93.7205 73.7426C96.305 73.7936 98.4304 72.5524 98.6515 69.8149C99.2126 62.6735 99.2126 56.1613 98.6175 49.122C98.3624 46.2655 96.424 45.1432 93.7545 45.1773C91.1531 45.2283 89.3507 46.5545 88.9596 49.275C88.5006 52.6587 88.7726 56.1103 88.5006 59.3919Z" fill="#282828"/>
<path fill-rule="evenodd" clip-rule="evenodd" d="M10.0303 66.9754C12.1897 72.2634 15.3183 74.0148 19.8071 72.5525C22.4256 71.7023 23.6838 69.951 23.6158 67.2305C23.5648 64.782 22.3066 62.9967 19.7051 62.4696C17.3246 61.9595 14.8762 61.9255 12.3087 61.6534C12.3087 59.7661 12.3087 57.8277 12.3087 55.7533C14.3831 55.6003 16.4575 55.5323 18.5149 55.2942C21.5244 54.9372 23.1227 53.0668 23.0037 50.2443C22.8677 47.3368 21.2184 45.7725 18.1068 45.6024C14.9782 45.4494 13.4479 46.5206 11.1185 50.4653C7.95588 50.0233 4.74228 49.5812 1.32464 49.0881C2.97395 44.8203 5.72847 42.0148 9.70721 40.5015C15.4713 38.3421 21.4224 38.3081 27.2545 40.2294C33.0526 42.0998 35.7731 47.0137 34.2428 52.0636C33.4947 54.5291 31.7433 56.0764 29.5669 57.1986C28.8528 57.6067 28.0707 57.9127 26.9995 58.3888C28.1387 58.8309 29.0058 59.171 29.89 59.511C37.8475 62.6736 36.5893 72.3995 32.2364 75.7831C27.9516 79.1327 23.0037 79.9999 17.6137 79.9999C14.128 79.9999 11.7476 79.5068 8.90806 78.6906C4.04515 77.3134 1.1036 73.6407 0.0664062 68.3187C3.38203 67.8426 6.64664 67.4345 10.0303 66.9754Z" fill="#282828"/>
<path fill-rule="evenodd" clip-rule="evenodd" d="M81.4431 15.0318C85.2688 16.4091 86.612 18.5515 86.391 22.8363C86.1699 26.8831 84.0786 29.9436 80.3889 30.3177C76.0361 30.7598 71.6152 30.4197 67.1094 30.4197C67.1094 20.7959 67.1094 10.9681 67.1094 1.19124C71.6152 1.19124 76.1551 0.885178 80.6099 1.29325C83.7725 1.56531 85.2348 4.16679 85.4898 7.26137C85.7449 10.2369 85.0817 12.8384 82.2082 14.4027C82.0042 14.5047 81.8171 14.6068 81.6641 14.7258C81.5791 14.7258 81.5451 14.8108 81.4431 15.0318ZM72.9585 26.407C75.4579 26.3219 78.0594 26.9171 79.5727 24.4346C80.6269 22.6493 80.5759 20.5749 79.3857 18.8575C77.7534 16.5451 75.3049 17.3783 72.9925 17.3613C72.9585 20.4218 72.9585 23.2784 72.9585 26.407ZM73.0265 5.23799C73.0265 7.9245 73.0265 10.424 73.0265 13.0255C75.3389 13.1615 77.8214 13.5696 78.9096 11.2741C79.5387 9.99889 79.4367 7.83948 78.7566 6.61525C77.5663 4.47285 75.1179 5.20399 73.0265 5.23799Z" fill="#282828"/>
<path fill-rule="evenodd" clip-rule="evenodd" d="M6.90011 30.725C4.7407 30.725 2.93836 30.725 1 30.725C1 20.7611 1 10.8992 1 0.901367C7.24017 0.901367 13.4463 0.901367 19.8055 0.901367C19.8055 10.8142 19.8055 20.6761 19.8055 30.6739C17.9522 30.6739 16.1668 30.6739 14.0755 30.6739C14.0755 22.3934 14.0755 14.0958 14.0755 5.69627C11.559 5.69627 9.33156 5.69627 6.91711 5.69627C6.90011 14.0108 6.90011 22.2404 6.90011 30.725Z" fill="#282828"/>
<path fill-rule="evenodd" clip-rule="evenodd" d="M108.701 8.14459C107.8 2.49953 104.501 6.53267e-05 98.516 0.153094C93.194 0.28912 89.8104 3.16266 89.3683 8.62068C89.0283 13.3476 89.0283 18.1425 89.3683 22.8694C89.7594 28.2254 93.109 31.0989 98.363 31.2009C104.722 31.3199 107.851 28.9735 108.735 23.2434C109.109 20.761 109.177 18.2275 109.364 15.694C109.177 13.1945 109.109 10.6441 108.701 8.14459ZM102.682 23.8385C102.41 25.7259 101.254 27.0011 99.1112 27.0011C96.9858 27.0011 95.5745 25.7769 95.5065 23.9065C95.3194 18.4825 95.3535 13.0245 95.5405 7.58349C95.6085 5.64512 97.1048 4.4719 99.1452 4.4719C101.254 4.50591 102.41 5.83216 102.682 7.70251C103.09 10.338 102.784 13.0075 103.039 15.66C102.818 18.3805 103.09 21.152 102.682 23.8385Z" fill="#282828"/>
<path fill-rule="evenodd" clip-rule="evenodd" d="M64.6623 30.7255C62.5369 30.7255 60.6495 30.7255 58.6431 30.7255C58.15 28.6681 57.6739 26.6617 57.1809 24.5363C54.5114 24.5363 51.8759 24.5363 49.1213 24.5363C48.6282 26.5937 48.1522 28.6341 47.6421 30.6915C45.6697 30.6915 43.8334 30.6915 41.793 30.6915C41.827 30.1984 41.759 29.7563 41.878 29.3142C44.2414 20.3876 46.6219 11.4949 48.9343 2.56821C49.3084 1.15695 49.9035 0.714864 51.3828 0.74887C56.8238 0.816883 56.8238 0.74887 58.2691 6.05386C60.3094 13.6543 62.3328 21.3057 64.3392 28.9402C64.4752 29.4503 64.5262 30.0114 64.6623 30.7255ZM56.1437 19.4184C55.1745 14.9805 54.2563 10.7808 53.3551 6.54696C53.2021 6.54696 53.0321 6.58096 52.879 6.58096C51.9779 10.8148 51.0597 15.0315 50.1245 19.4184C52.2159 19.4184 54.0013 19.4184 56.1437 19.4184Z" fill="#282828"/>
<path fill-rule="evenodd" clip-rule="evenodd" d="M23.7852 30.6388C23.7852 20.6749 23.7852 10.8641 23.7852 1.00221C28.189 1.00221 32.5418 0.594136 36.8096 1.12124C40.9074 1.63133 43.3218 6.57926 42.4547 11.4252C41.6385 16.101 38.85 18.4135 33.834 18.6685C29.6343 18.8556 29.6343 18.8556 29.6002 23.0894C29.6002 25.5208 29.6002 27.9693 29.6002 30.6048C27.6619 30.6388 25.8425 30.6388 23.7852 30.6388ZM29.7873 5.202C29.7873 8.36459 29.7873 11.3061 29.7873 14.3157C32.1167 14.4007 34.4632 14.9108 35.8404 12.6494C36.9626 10.8131 36.9286 8.70466 35.8744 6.85131C34.4972 4.47086 32.1167 5.27001 29.7873 5.202Z" fill="#282828"/>
<path fill-rule="evenodd" clip-rule="evenodd" d="M112.559 0H116.775C119.139 0 119.632 1.66631 119.632 3.09458C119.632 4.13177 119.19 5.64506 118.068 5.79809V5.8831C120.159 6.10415 118.544 8.63762 119.666 10.899H117.558C117.183 10.1169 117.37 9.62381 117.251 8.14453C117.166 6.83528 116.316 6.88629 116.027 6.88629H114.65V10.899H112.559V0ZM114.65 4.87992H116.214C116.69 4.87992 117.404 4.7949 117.404 3.50266C117.404 2.31243 116.945 2.09139 116.163 2.09139H114.65V4.87992Z" fill="#282828"/>
<path fill-rule="evenodd" clip-rule="evenodd" d="M122.487 0V6.35919C122.487 8.48459 122.912 9.11371 123.984 9.11371C125.055 9.11371 125.497 8.5186 125.497 6.35919V0H127.588V6.76727C127.588 9.18172 127.027 11.2221 123.984 11.2221C120.94 11.2221 120.379 9.18172 120.379 6.76727V0L122.487 0Z" fill="#282828"/>
</g>
<defs>
<clipPath id="clip0_83_1442">
<rect width="127.66" height="80" fill="white"/>
</clipPath>
</defs>
</svg>
