<svg width="30" height="30" viewBox="0 0 30 30" fill="none" xmlns="http://www.w3.org/2000/svg">
<circle cx="15" cy="15" r="15" transform="rotate(-180 15 15)" fill="#FF6600"/>
<path d="M13.0768 17.3258L10.9948 15.2438C10.8827 15.1314 10.7306 15.0683 10.5718 15.0683C10.4131 15.0683 10.2609 15.1314 10.1488 15.2438C9.91484 15.4778 9.91484 15.8558 10.1488 16.0898L12.6568 18.5978C12.8908 18.8318 13.2688 18.8318 13.5028 18.5978L19.8509 12.2498C20.0849 12.0158 20.0849 11.6378 19.8509 11.4038C19.7387 11.2914 19.5866 11.2283 19.4279 11.2283C19.2691 11.2283 19.1169 11.2914 19.0049 11.4038L13.0768 17.3258Z" fill="#F9F9F9"/>
</svg>
