<svg width="137" height="137" viewBox="0 0 137 137" fill="none" xmlns="http://www.w3.org/2000/svg">
<path d="M105.138 26.5336C105.094 26.8859 104.846 27.1944 104.483 27.2991C104.464 27.3053 103.853 27.4825 102.823 27.8656C102.348 28.0413 101.822 27.8013 101.645 27.328C101.468 26.8497 101.711 26.328 102.183 26.1508C103.312 25.7308 103.976 25.5407 103.976 25.5407C104.462 25.402 104.968 25.6827 105.108 26.1685C105.143 26.2909 105.152 26.4138 105.138 26.5336Z" fill="#282828" fill-opacity="0.15"/>
<path d="M102.821 27.8728L102.823 27.8607C102.345 28.0458 101.823 27.7976 101.648 27.321C101.473 26.8565 101.71 26.3328 102.188 26.1465C102.653 25.9708 103.187 26.2217 103.361 26.6983C103.417 26.8393 103.425 26.9767 103.407 27.122C103.366 27.4489 103.157 27.7438 102.821 27.8728Z" fill="#282828" fill-opacity="0.15"/>
<path d="M99.9693 28.5623C99.9299 28.8782 99.7365 29.148 99.4489 29.2855C98.3522 29.7992 97.2506 30.3517 96.1797 30.9547C96.0087 31.0441 95.8194 31.0832 95.6136 31.0576C95.3352 31.0229 95.0733 30.855 94.9326 30.6027C94.7039 30.1685 94.8624 29.587 95.2847 29.3556C96.3951 28.7317 97.5374 28.1486 98.6721 27.6261C99.129 27.4126 99.6829 27.6045 99.8965 28.0614C99.963 28.2185 99.9904 28.3928 99.9693 28.5623ZM93.4534 32.2133C93.42 32.4809 93.2688 32.7079 93.054 32.8533C92.0222 33.5362 91.0223 34.2599 90.0829 34.9912C89.8909 35.1505 89.6488 35.2186 89.4067 35.1885C89.1646 35.1583 88.9466 35.0328 88.7982 34.8422C88.4894 34.4595 88.5633 33.8663 88.9339 33.5559C88.946 33.5574 88.946 33.5574 88.9477 33.5441L88.9884 33.5135C89.9414 32.7716 90.9398 32.06 92.0381 31.3362C92.2136 31.2106 92.4286 31.1624 92.6344 31.188C92.9144 31.2106 93.1534 31.3645 93.3093 31.593C93.4229 31.7669 93.4805 31.9954 93.4534 32.2133ZM87.5808 36.8187C87.5551 37.0245 87.4568 37.2212 87.3027 37.3729C86.386 38.2177 85.5269 39.0942 84.7525 39.9813C84.5513 40.2144 84.2427 40.3235 83.9415 40.2737C83.7599 40.251 83.5965 40.1815 83.4527 40.0529C83.0984 39.7383 83.0513 39.13 83.3795 38.7652C84.21 37.8224 85.1114 36.9032 86.0432 36.0358C86.2519 35.8405 86.5197 35.7632 86.7982 35.7979C87.004 35.8235 87.2007 35.9218 87.3415 36.0746C87.5262 36.2697 87.6156 36.539 87.5808 36.8187ZM79.3884 88.6636C79.3644 88.8561 79.3386 89.0631 79.3146 89.2556C79.2301 89.7368 78.7942 90.0772 78.3086 90.0278C78.2965 90.0263 78.2844 90.0247 78.2602 90.0217C77.7775 89.9493 77.4398 89.5015 77.5017 89.0052L77.5152 88.8962C77.6661 87.7839 77.7534 86.5899 77.7529 85.4096C77.7406 84.9163 78.1626 84.4894 78.6544 84.4892C78.7043 84.4831 78.7527 84.4892 78.8012 84.4952C79.2355 84.5616 79.5807 84.9489 79.575 85.3895C79.5828 86.5105 79.5197 87.6091 79.3884 88.6636ZM78.4368 92.8481C78.4292 92.9086 78.4217 92.9691 78.3901 93.0254C77.9775 94.2649 77.4347 95.4636 76.7921 96.5761C76.6167 96.8985 76.2626 97.0757 75.8873 97.0289C75.7663 97.0139 75.6603 96.9761 75.5453 96.9126C75.12 96.6752 74.9578 96.1017 75.2073 95.6779L75.209 95.6646L75.2255 95.631C75.7925 94.632 76.2839 93.5499 76.6678 92.442C76.8053 92.0289 77.2062 91.7715 77.642 91.8257C77.7026 91.8333 77.7631 91.8408 77.8221 91.8605C78.2338 92.0101 78.4897 92.4231 78.4368 92.8481ZM79.3099 81.7936C79.2586 82.2052 78.9349 82.5337 78.522 82.5917C78.4478 82.5947 78.3735 82.599 78.2888 82.5885C77.8772 82.5372 77.5486 82.2135 77.4896 81.7992C77.3378 80.6492 77.1179 79.4538 76.8269 78.2373L76.8284 78.2252C76.7041 77.7426 77.0247 77.2416 77.5074 77.1173C77.6087 77.093 77.7192 77.0945 77.816 77.1065C78.205 77.1427 78.5139 77.4259 78.6034 77.7935C78.9081 79.0978 79.1446 80.3567 79.3025 81.5566C79.3174 81.6347 79.3191 81.7197 79.3099 81.7936ZM82.6439 42.4C82.6243 42.5574 82.5699 42.6981 82.4808 42.821C81.77 43.7898 81.112 44.8278 80.5134 45.8831C80.3274 46.1919 79.9718 46.3812 79.6086 46.3359C79.4876 46.3208 79.3697 46.2803 79.2667 46.2183C78.8413 45.9821 78.6793 45.4075 78.918 44.9713C79.532 43.8921 80.2323 42.8101 80.9913 41.7503C81.1849 41.4793 81.5102 41.3354 81.8492 41.3777C81.9945 41.3958 82.1475 41.4505 82.2714 41.5409C82.5424 41.7345 82.6848 42.0719 82.6439 42.4ZM74.7594 99.2735C74.7368 99.4551 74.6672 99.6186 74.5523 99.7518C73.7448 100.707 72.8174 101.638 71.8145 102.484C71.6087 102.655 71.3546 102.722 71.1003 102.69C70.8703 102.662 70.6629 102.55 70.5252 102.373C70.2012 102.013 70.2524 101.404 70.623 101.094C71.5578 100.301 72.4141 99.4473 73.1628 98.5693C73.3519 98.3347 73.662 98.2135 73.9647 98.2512C74.1463 98.2738 74.3097 98.3434 74.4551 98.4598C74.688 98.6622 74.7971 98.9709 74.7594 99.2735ZM77.6711 74.5202C77.6258 74.8834 77.3521 75.2058 76.9845 75.294C76.8832 75.3183 76.7727 75.3168 76.6621 75.3166C76.2868 75.2698 75.9644 74.9961 75.8764 74.6163C75.5642 73.3725 75.3019 72.1227 75.0956 70.9168L75.0835 70.9153C74.9972 70.4238 75.3403 69.9391 75.8306 69.8527C75.932 69.8284 76.0182 69.8269 76.103 69.8374C76.501 69.8993 76.8204 70.1973 76.8947 70.5877C77.092 71.7667 77.3602 72.9693 77.6513 74.1858C77.6757 74.286 77.6863 74.3979 77.6711 74.5202ZM78.9726 48.8754C78.9621 48.9601 78.9394 49.0433 78.9046 49.1251C78.4209 50.2451 78.0082 51.3862 77.6561 52.5349C77.5278 52.9726 77.101 53.2403 76.6531 53.1845C76.6063 53.1651 76.5579 53.1591 76.5095 53.153C76.0371 52.9971 75.7556 52.4936 75.9021 52.009C76.274 50.8001 76.7078 49.5878 77.2112 48.4088C77.3805 48.0365 77.7527 47.8124 78.1537 47.85C78.2384 47.8606 78.3338 47.8848 78.4155 47.9195C78.7892 48.078 79.0224 48.4758 78.9726 48.8754ZM76.3865 67.1668C76.3336 67.5917 75.9979 67.9175 75.5742 67.9631C75.5122 67.9676 75.4501 67.9722 75.3896 67.9646C74.9521 67.9237 74.6145 67.5743 74.5706 67.1373C74.4384 65.8299 74.3774 64.5437 74.3557 63.3361C74.3585 62.8201 74.7654 62.4159 75.2587 62.4036L75.404 62.4217C75.8398 62.476 76.185 62.8632 76.1897 63.3187C76.2023 64.5005 76.271 65.725 76.3881 66.9567C76.4029 67.0348 76.3955 67.0941 76.3865 67.1668ZM76.8056 56.0066C76.8024 56.032 76.8011 56.0429 76.7979 56.0683C76.5836 57.1961 76.4147 58.4536 76.3123 59.6703L76.3078 59.7066C76.2476 60.1897 75.8225 60.5424 75.323 60.506L75.2745 60.5C74.8024 60.4411 74.4511 60.004 74.4873 59.5167C74.5957 58.2516 74.7678 56.9686 74.9958 55.7307C75.0923 55.2522 75.5387 54.9254 76.023 54.9858L76.0714 54.9918C76.5389 55.0881 76.8644 55.5344 76.8056 56.0066ZM69.1171 104.103C69.0839 104.369 68.9311 104.609 68.7163 104.754C68.7042 104.752 68.7027 104.764 68.7027 104.764C68.6891 104.775 68.6755 104.786 68.6498 104.795C67.6225 105.441 66.5121 106.065 65.3472 106.633C65.19 106.711 65.0007 106.75 64.8207 106.714C64.5181 106.676 64.2592 106.484 64.1335 106.21C63.917 105.778 64.1118 105.201 64.5446 104.983C65.6687 104.447 66.7276 103.842 67.7156 103.214C67.9017 103.102 68.1165 103.055 68.3224 103.081C68.5887 103.114 68.8278 103.267 68.9838 103.495C69.0957 103.682 69.1427 103.897 69.1171 104.103ZM62.4345 107.414C62.3923 107.753 62.1609 108.031 61.8507 108.152C60.6889 108.597 59.4694 109.01 58.2438 109.374C58.1287 109.41 58.0046 109.419 57.8836 109.404C57.5189 109.371 57.2191 109.112 57.1025 108.766C56.9661 108.282 57.2519 107.764 57.7239 107.626C58.9374 107.261 60.1053 106.867 61.1903 106.447C61.2039 106.437 61.2039 106.437 61.216 106.438C61.3567 106.394 61.4944 106.374 61.6397 106.393C61.9786 106.435 62.2588 106.653 62.3785 106.975C62.4344 107.119 62.4541 107.256 62.4345 107.414ZM55.2809 109.571C55.234 109.948 54.9481 110.269 54.5821 110.345C53.3791 110.627 52.1294 110.888 50.872 111.112C50.772 111.126 50.6859 111.126 50.589 111.114C50.1895 111.064 49.8822 110.768 49.8094 110.365C49.7214 109.887 50.0526 109.4 50.5308 109.312L50.5444 109.301C50.5686 109.304 50.5945 109.294 50.6066 109.295C51.8774 109.061 53.0381 108.824 54.1516 108.57C54.1516 108.57 54.1516 108.57 54.1654 108.558C54.2666 108.535 54.3772 108.536 54.4862 108.549C54.8615 108.596 55.1703 108.88 55.2597 109.248C55.2838 109.351 55.2945 109.463 55.2809 109.571ZM47.9241 110.893C47.8729 111.304 47.5492 111.633 47.1255 111.678C45.9118 111.848 44.6409 111.983 43.3727 112.097C43.3107 112.102 43.2486 112.106 43.1881 112.099C42.7644 112.046 42.4147 111.695 42.3812 111.273C42.3341 110.763 42.7213 110.319 43.2191 110.271C44.3992 110.173 45.634 110.032 46.8959 109.869L46.908 109.871C46.9702 109.865 47.0444 109.862 47.1291 109.873C47.5407 109.924 47.8692 110.248 47.9162 110.66C47.9316 110.734 47.933 110.821 47.9241 110.893ZM40.4642 111.561C40.4099 111.997 40.062 112.323 39.6277 112.355C39.6277 112.355 39.6141 112.365 39.602 112.364C39.5899 112.362 39.5657 112.359 39.5415 112.356C38.2659 112.431 37.019 112.472 35.8372 112.485C35.7887 112.479 35.7388 112.485 35.6904 112.479C35.2561 112.412 34.9109 112.025 34.9046 111.582C34.8922 111.09 35.3143 110.662 35.8077 110.649C36.9274 110.641 38.1743 110.6 39.5105 110.533C39.5605 110.526 39.609 110.532 39.6574 110.538C40.0947 110.58 40.4534 110.958 40.4719 111.401C40.4778 111.452 40.4703 111.513 40.4642 111.561ZM32.9889 111.663C32.93 112.136 32.5308 112.479 32.0541 112.456C32.0405 112.467 32.0284 112.465 32.0163 112.464C31.5033 112.437 31.1127 112.019 31.1246 111.529C31.141 111.002 31.5568 110.625 32.0471 110.637C32.0592 110.638 32.0851 110.628 32.0972 110.63L32.1941 110.642C32.6662 110.701 33.0099 111.1 32.9872 111.578C32.9965 111.602 32.9935 111.627 32.9889 111.663Z" fill="#282828" fill-opacity="0.15"/>
<path d="M32.9437 111.661C32.8862 112.122 32.4858 112.474 32.0117 112.461C30.8243 112.43 30.1512 112.385 30.1512 112.385C29.6465 112.35 29.2655 111.916 29.2988 111.411C29.3215 110.923 29.7682 110.525 30.2718 110.558C30.2827 110.56 30.9278 110.602 32.06 110.632C32.565 110.645 32.9637 111.066 32.95 111.571C32.9499 111.601 32.9475 111.631 32.9437 111.661Z" fill="#282828" fill-opacity="0.15"/>
<path d="M106.662 26.2327C106.64 26.4143 106.563 26.5892 106.437 26.7296L100.097 33.8265C99.7607 34.2039 99.1813 34.2362 98.8053 33.8992C98.4291 33.5635 98.393 32.9848 98.7327 32.6067L104.099 26.5994L96.3251 24.3892C95.8383 24.2511 95.5592 23.7479 95.695 23.2595C95.833 22.7739 96.339 22.4915 96.8247 22.6294L106.004 25.2385C106.307 25.3242 106.546 25.5605 106.633 25.8628C106.669 25.9852 106.678 26.1105 106.662 26.2327Z" fill="#282828" fill-opacity="0.15"/>
</svg>
