<svg width="20" height="20" viewBox="0 0 20 20" fill="none" xmlns="http://www.w3.org/2000/svg">
<g clip-path="url(#clip0_1_291)">
<path d="M19.6875 9.04555L17.5 6.89555V1.45805C17.5 1.11305 17.22 0.833053 16.875 0.833053H13.9583C13.6133 0.833053 13.3333 1.11305 13.3333 1.45805V2.84805L10.4233 0.165553C10.1808 -0.0586135 9.80583 -0.0544468 9.5675 0.173887L0.308333 9.04972C0.1125 9.24555 0 9.51555 0 9.79139C0 10.3656 0.4675 10.8331 1.04167 10.8331H2.5V18.7497C2.5 19.4397 3.06 19.9997 3.75 19.9997H7.29167C7.63667 19.9997 7.91667 19.7197 7.91667 19.3747V13.7497C7.91667 13.6356 8.01 13.5414 8.125 13.5414H11.875C11.9892 13.5414 12.0833 13.6356 12.0833 13.7497V19.3747C12.0833 19.7197 12.3633 19.9997 12.7083 19.9997H16.25C16.94 19.9997 17.5 19.4397 17.5 18.7497V10.8331H18.9583C19.5325 10.8331 20 10.3656 20 9.79139C20 9.51555 19.8875 9.24555 19.6875 9.04555Z" fill="#DEE0E7"/>
</g>
<defs>
<clipPath id="clip0_1_291">
<rect width="20" height="20" fill="white"/>
</clipPath>
</defs>
</svg>
