<svg width="25" height="25" viewBox="0 0 25 25" fill="none" xmlns="http://www.w3.org/2000/svg">
<circle cx="12.5" cy="12.5" r="12.5" transform="matrix(1 -8.74228e-08 -8.74228e-08 -1 0 25)" fill="#F9F9F9"/>
<g clip-path="url(#clip0_1_1260)">
<path d="M11.0168 9.78924C11.1279 9.67426 11.3128 9.67426 11.4277 9.78924C11.5388 9.90033 11.5388 10.0852 11.4277 10.1961L9.34393 12.2799H16.2202C16.3805 12.2801 16.5079 12.4075 16.5079 12.5678C16.5079 12.7281 16.3805 12.8597 16.2202 12.8597H9.34393L11.4277 14.9396C11.5388 15.0546 11.5388 15.2397 11.4277 15.3506C11.3128 15.4655 11.1276 15.4655 11.0168 15.3506L8.43966 12.7734C8.32468 12.6623 8.32468 12.4775 8.43966 12.3666L11.0168 9.78924Z" fill="#282828"/>
</g>
<defs>
<clipPath id="clip0_1_1260">
<rect width="8.15451" height="8.15451" rx="4.07725" transform="matrix(-1 0 0 1 16.5079 8.49207)" fill="white"/>
</clipPath>
</defs>
</svg>
